<svg width="24" height="25" viewBox="0 0 24 25" fill="none" xmlns="http://www.w3.org/2000/svg">
<path d="M12 6.5V2.5H8" stroke="white" strokeWidth="2" strokeLinecap="round" strokeLinejoin="round"/>
<path d="M8 18.5L4 22.5V8.5C4 7.96957 4.21071 7.46086 4.58579 7.08579C4.96086 6.71071 5.46957 6.5 6 6.5H18C18.5304 6.5 19.0391 6.71071 19.4142 7.08579C19.7893 7.46086 20 7.96957 20 8.5V16.5C20 17.0304 19.7893 17.5391 19.4142 17.9142C19.0391 18.2893 18.5304 18.5 18 18.5H8Z" stroke="white" strokeWidth="2" strokeLinecap="round" strokeLinejoin="round"/>
<path d="M2 12.5H4" stroke="white" strokeWidth="2" strokeLinecap="round" strokeLinejoin="round"/>
<path d="M9 11.5V13.5" stroke="white" strokeWidth="2" strokeLinecap="round" strokeLinejoin="round"/>
<path d="M15 11.5V13.5" stroke="white" strokeWidth="2" strokeLinecap="round" strokeLinejoin="round"/>
<path d="M20 12.5H22" stroke="white" strokeWidth="2" strokeLinecap="round" strokeLinejoin="round"/>
</svg>
