<svg width="48" height="25" viewBox="0 0 48 25" fill="none" xmlns="http://www.w3.org/2000/svg">
<g id="Group">
<path id="Vector" d="M12.4047 16.8264C11.6856 16.8264 11.0114 17.0062 10.4271 17.3657C9.57319 17.9051 8.94398 18.759 8.67432 19.7478C8.4496 20.7365 8.58443 21.7702 9.12375 22.6691C9.84286 23.8377 11.0563 24.5118 12.4047 24.5118C13.1238 24.5118 13.7979 24.332 14.3822 23.9725C15.2361 23.4332 15.8653 22.5792 16.135 21.5905C16.3597 20.6017 16.2249 19.568 15.6856 18.6691C15.0114 17.5006 13.753 16.8264 12.4047 16.8264ZM14.3372 21.0961C14.2024 21.5905 13.8878 22.0399 13.4384 22.3096C13.1238 22.4893 12.7642 22.5792 12.4047 22.5792C11.7305 22.5792 11.0563 22.2197 10.6968 21.6354C10.4271 21.186 10.3372 20.6466 10.4721 20.1523C10.6069 19.6579 10.9215 19.2084 11.3709 18.9388C11.6856 18.759 12.0451 18.6691 12.4047 18.6691C13.0788 18.6691 13.753 19.0287 14.1125 19.6129C14.3822 20.0624 14.4721 20.6017 14.3372 21.0961Z" fill="white"/>
<path id="Vector_2" d="M27.4607 3.97241H26.1124C25.1685 3.97241 24.4045 4.73646 24.4045 5.68028V14.0848H1.97753V11.9724C1.97753 11.6129 1.70787 11.3432 1.34831 11.3432H0.629214C0.269663 11.3432 0 11.6129 0 11.9724V14.9836V16.2421C0 16.7365 0.404494 17.1859 0.94382 17.1859H3.91011C3.86517 17.2758 3.86517 17.4106 3.86517 17.5005V18.3095H2.1573C1.88764 18.3095 1.66292 18.5342 1.66292 18.8039C1.66292 19.0735 1.88764 19.2983 2.1573 19.2983H3.82022V19.7027C3.82022 20.1971 4.22472 20.6466 4.76405 20.6466H7.73034C7.73034 20.287 7.77528 19.8825 7.86517 19.523C8.08989 18.6241 8.53933 17.8601 9.16854 17.2308C9.21348 17.1859 9.25843 17.141 9.34831 17.096C9.39326 17.0511 9.4382 17.0061 9.52809 16.9612C9.52809 16.9612 9.57303 16.9612 9.57303 16.9162C9.61798 16.8713 9.66292 16.8263 9.70787 16.8263C9.79775 16.7814 9.8427 16.7365 9.93258 16.6915L9.97753 16.6466C10.6966 16.1971 11.5506 15.9724 12.4045 15.9724C13.3034 15.9724 14.1573 16.2421 14.8764 16.6915C15.5056 17.096 16.0449 17.5904 16.4045 18.2645C16.8539 19.0286 17.0787 19.8376 17.0787 20.6915H28.2247C28.7191 20.6915 29.1685 20.287 29.1685 19.7477V17.905V17.7702V17.5454V15.0286V5.68028C29.1685 4.73646 28.4045 3.97241 27.4607 3.97241Z" fill="white"/>
<path id="Vector_3" d="M43.5057 18.3545C43.1911 17.95 42.7866 17.5905 42.3821 17.3208C42.3372 17.2759 42.2922 17.2759 42.2473 17.2309C42.2473 17.2309 42.2023 17.2309 42.2023 17.186C42.1574 17.141 42.1125 17.141 42.0675 17.141C42.0226 17.141 42.0226 17.141 41.9776 17.0961C41.9327 17.0961 41.8877 17.0512 41.8428 17.0512C41.7978 17.0512 41.7978 17.0512 41.7529 17.0062C41.708 17.0062 41.663 16.9613 41.6181 16.9613C41.5731 16.9613 41.5282 16.9613 41.5282 16.9163C41.4832 16.9163 41.4383 16.9163 41.3934 16.8714C41.3484 16.8714 41.3035 16.8714 41.2585 16.8264C41.2136 16.8264 41.1686 16.8264 41.1686 16.7815C41.1237 16.7815 41.0787 16.7815 41.0338 16.7815C40.9889 16.7815 40.9439 16.7815 40.9439 16.7815C40.899 16.7815 40.854 16.7815 40.8091 16.7815C40.7641 16.7815 40.7641 16.7815 40.7192 16.7815C40.6293 16.7815 40.5394 16.7815 40.4945 16.7815C39.7754 16.7815 39.1012 16.9613 38.5169 17.3208C38.4271 17.3658 38.2922 17.4557 38.2023 17.5455C38.1125 17.6354 38.0226 17.6804 37.9327 17.7703C37.8428 17.8601 37.7529 17.95 37.663 18.0399C37.5731 18.1298 37.4832 18.2197 37.4383 18.3096C37.1237 18.7141 36.899 19.1635 36.8091 19.7028C36.5844 20.6916 36.7192 21.7253 37.2585 22.6242C37.9776 23.7927 39.1911 24.4669 40.5394 24.4669C41.2585 24.4669 41.9327 24.2871 42.5169 23.9276C43.3709 23.3882 44.0001 22.5343 44.2698 21.5455C44.4945 20.5568 44.3596 19.5231 43.8203 18.6242C43.6405 18.5343 43.5507 18.4444 43.5057 18.3545ZM42.3372 21.0961C42.2023 21.5905 41.8877 22.0399 41.4383 22.3096C41.1237 22.4894 40.7641 22.5792 40.4046 22.5792C39.7304 22.5792 39.0563 22.2197 38.6967 21.6354C38.4271 21.186 38.3372 20.6467 38.472 20.1523C38.6068 19.6579 38.9214 19.2085 39.3709 18.9388C39.6855 18.759 40.045 18.6691 40.4046 18.6691C41.0787 18.6691 41.7529 19.0287 42.1125 19.613C42.3821 20.0624 42.472 20.6017 42.3372 21.0961Z" fill="white"/>
<path id="Vector_4" d="M47.0562 16.8713C47.0562 16.7814 47.0562 16.7365 47.0562 16.6466C47.0562 16.6466 47.1011 13.1859 46.9663 12.8264C46.7416 12.287 46.2472 11.8376 45.6629 11.7477L41.3034 11.2983C41.3034 9.41064 40.3596 7.97244 38.8764 7.11851C36.0899 5.45559 31.8202 5.41064 31.4157 5.41064H30.6517C30.2472 5.41064 29.9775 5.86008 29.9775 6.03986V13.8601C29.9775 13.905 29.9775 13.905 29.9775 13.95V18.1747V19.7028C29.9775 20.2421 30.427 20.6466 30.9214 20.6466H35.6854C35.6854 20.287 35.7303 19.8826 35.8202 19.523C35.9101 19.1185 36.0899 18.714 36.2697 18.3545C36.4045 18.0848 36.5843 17.8601 36.7641 17.6354C36.809 17.5455 36.8989 17.5005 36.9438 17.4106C36.9888 17.3657 37.0787 17.2758 37.1236 17.2309L37.1686 17.1859C37.2135 17.141 37.3034 17.0511 37.3483 17.0061L37.3933 16.9612C37.5281 16.8264 37.7079 16.7365 37.8427 16.6466C38.5618 16.1972 39.4157 15.9724 40.2697 15.9724C41.3034 15.9724 42.2921 16.287 43.1011 16.9163C43.1461 16.9612 43.236 17.0062 43.2809 17.0511C43.3259 17.096 43.3259 17.096 43.3708 17.141C43.4157 17.1859 43.4607 17.1859 43.4607 17.2309C43.5056 17.2758 43.5056 17.2758 43.5506 17.3208C43.5955 17.3657 43.6405 17.4106 43.6854 17.4556L43.7304 17.5005C43.7753 17.5455 43.8652 17.6354 43.9101 17.6803C43.9101 17.7253 43.9551 17.7253 43.9551 17.7702C44 17.8151 44.045 17.8601 44.0899 17.95C44.0899 17.95 44.1348 17.9949 44.1348 18.0399C44.1798 18.1297 44.2247 18.1747 44.2697 18.2646C44.7191 19.0286 44.9438 19.8376 44.9438 20.6915H46.8315C47.3708 20.6915 47.7753 20.2421 47.7753 19.7477V17.905C47.9551 17.3208 47.5506 16.9163 47.0562 16.8713ZM34.4719 11.1185V8.73649C34.4719 8.37694 34.2023 8.10727 33.8427 8.10727H33.1236C32.7641 8.10727 32.4944 8.37694 32.4944 8.73649V11.1185H31.4607L31.4157 6.71402C35.6405 6.84885 40 7.523 40.045 11.2983L34.4719 11.1185Z" fill="white"/>
<path id="Vector_5" d="M5.07843 10.759C5.12337 9.32078 6.29191 8.15224 7.73011 8.15224C9.16832 8.15224 10.3369 9.32078 10.3818 10.759C11.8649 10.759 13.393 10.759 14.8312 10.759C14.8762 9.32078 16.0447 8.19718 17.4829 8.19718C18.9211 8.19718 20.0897 9.36572 20.1346 10.759C21.2133 10.759 20.2245 10.759 20.4492 10.759C23.8649 10.759 23.1458 5.77022 20.5391 5.77022C20.4043 5.77022 19.82 5.77022 18.9211 5.77022C18.8762 5.72527 18.247 4.33201 16.9885 2.9837C15.2807 1.18595 13.1683 0.332014 11.011 0.51179C8.85371 0.691565 6.92113 1.72527 5.43798 3.38819C2.92113 6.2646 1.48292 10.759 5.07843 10.759ZM11.5953 1.36572C13.3481 1.32078 14.9661 2.08482 16.3593 3.52303C17.1683 4.37696 17.7076 5.23089 17.9773 5.72527C16.2245 5.72527 13.8874 5.72527 11.5953 5.72527V1.36572ZM6.15708 3.92752C7.46045 2.44437 9.03348 1.59044 10.9211 1.41067V5.72527C8.49416 5.72527 6.20202 5.72527 4.98854 5.72527C5.16832 5.27583 5.57281 4.60168 6.15708 3.92752Z" fill="white"/>
<path id="Vector_6" d="M17.5284 8.60156C16.3149 8.60156 15.3262 9.59033 15.3262 10.8038C15.3262 12.0173 16.3149 13.0061 17.5284 13.0061C18.7419 13.0061 19.7307 12.0173 19.7307 10.8038C19.7307 9.59033 18.7419 8.60156 17.5284 8.60156ZM17.5284 11.9723C16.8992 11.9723 16.3599 11.433 16.3599 10.8038C16.3599 10.1746 16.8992 9.63527 17.5284 9.63527C18.1576 9.63527 18.697 10.1746 18.697 10.8038C18.697 11.433 18.1576 11.9723 17.5284 11.9723Z" fill="white"/>
<path id="Vector_7" d="M7.77549 8.60156C6.56201 8.60156 5.57324 9.59033 5.57324 10.8038C5.57324 12.0173 6.56201 13.0061 7.77549 13.0061C8.98897 13.0061 9.97774 12.0173 9.97774 10.8038C9.93279 9.59033 8.94403 8.60156 7.77549 8.60156ZM7.77549 11.9723C7.14628 11.9723 6.60695 11.433 6.60695 10.8038C6.60695 10.1746 7.14628 9.63527 7.77549 9.63527C8.4047 9.63527 8.94403 10.1746 8.94403 10.8038C8.94403 11.433 8.4047 11.9723 7.77549 11.9723Z" fill="white"/>
</g>
</svg>
