<svg width="24" height="21" viewBox="0 0 24 21" fill="none" xmlns="http://www.w3.org/2000/svg">
<g id="Group 1707478217">
<path id="Vector" d="M1.77441 4.75586V19.8304H22.2202V4.75586H1.77441ZM4.8863 14.5018C3.41561 14.5018 2.21669 13.3082 2.21669 11.8376C2.21669 10.3669 3.41029 9.17326 4.8863 9.17326C6.36232 9.17326 7.5506 10.3669 7.5506 11.8376C7.5506 13.3029 6.357 14.5018 4.8863 14.5018ZM14.1367 12.0614C14.0515 12.1733 13.9183 12.2372 13.7744 12.2372H10.8064L12.4263 17.9335C12.4955 18.1679 12.357 18.413 12.1172 18.4823C12.0746 18.4983 12.0373 18.4983 11.9946 18.4983C11.7975 18.4983 11.6216 18.3704 11.5684 18.1732L9.79394 11.9175C9.75131 11.7789 9.77796 11.6351 9.86321 11.5285C9.94847 11.4166 10.0817 11.3527 10.2202 11.3527H13.1723L11.5737 6.19458C11.5044 5.96012 11.6376 5.70968 11.8668 5.63508C12.1012 5.5658 12.3517 5.69902 12.4263 5.92815L14.206 11.6724C14.2433 11.7949 14.2167 11.9441 14.1367 12.0614ZM19.1083 14.5018C17.6376 14.5018 16.4387 13.3082 16.4387 11.8376C16.4387 10.3669 17.6323 9.17326 19.1083 9.17326C20.5843 9.17326 21.7726 10.3669 21.7726 11.8376C21.7779 13.3029 20.579 14.5018 19.1083 14.5018Z" fill="white"/>
<path id="Vector_2" d="M6.21834 1.16382H3.10645V2.01639H6.21834V1.16382Z" fill="white"/>
<path id="Vector_3" d="M23.1108 2.90674V3.86588H22.8444C22.7911 3.84457 22.7272 3.82858 22.6686 3.82858H1.3329C1.26896 3.82858 1.21034 3.84457 1.15705 3.86588H0.890625V2.90674H2.4892C2.54249 2.92805 2.60643 2.94404 2.66505 2.94404H6.66682C6.73077 2.94404 6.78938 2.92805 6.84267 2.90674H17.1535C17.2068 2.92805 17.2707 2.94404 17.3293 2.94404H21.3311C21.395 2.94404 21.4537 2.92805 21.5069 2.90674H23.1108Z" fill="white"/>
<path id="Vector_4" d="M20.8873 1.16382H17.7754V2.01639H20.8873V1.16382Z" fill="white"/>
<path id="Vector_5" d="M22.844 3.86591H1.15137C1.20465 3.8446 1.2686 3.82861 1.32721 3.82861H22.6629C22.7268 3.83394 22.7908 3.8446 22.844 3.86591Z" fill="white"/>
<path id="Vector_6" d="M23.1108 4.75586V20.278C23.1108 20.5232 22.9084 20.7203 22.6686 20.7203H1.3329C1.08779 20.7203 0.890625 20.5178 0.890625 20.278V4.75586H1.78051V19.8304H22.2263V4.75586H23.1108Z" fill="white"/>
<path id="Vector_7" d="M0.884551 3.8664H1.15098C0.996451 3.93567 0.884551 4.09553 0.884551 4.2767V4.75627H0.442275C0.19716 4.75627 0 4.55911 0 4.314V2.46498C0 2.21453 0.202489 2.02271 0.442275 2.02271H2.22202V2.50228C2.22202 2.68345 2.33392 2.83798 2.48845 2.91258H0.889872V3.8664H0.884551Z" fill="white"/>
<path id="Vector_8" d="M22.2202 4.71899H1.77441V4.75629H22.2202V4.71899Z" fill="white"/>
<path id="Vector_9" d="M23.9988 2.46494V4.31396C23.9988 4.5644 23.7963 4.75623 23.5565 4.75623H23.1142V4.27666C23.1142 4.09548 23.0023 3.94095 22.8478 3.86635H23.1142V2.90721H21.5156C21.6702 2.83794 21.7821 2.67808 21.7821 2.49691V2.01733H23.5618C23.7963 2.01733 23.9988 2.21449 23.9988 2.46494Z" fill="white"/>
<path id="Vector_10" d="M17.1516 2.90721H6.84082C6.99535 2.83794 7.10725 2.67808 7.10725 2.49691V2.01733H16.8852V2.49691C16.8852 2.67808 16.9971 2.83794 17.1516 2.90721Z" fill="white"/>
<path id="Vector_11" d="M6.8437 2.90674C6.79042 2.92805 6.72647 2.94404 6.66786 2.94404H2.66608C2.60214 2.94404 2.54352 2.92805 2.49023 2.90674H6.8437Z" fill="white"/>
<path id="Vector_12" d="M7.10844 0.722161V2.02234H6.21856V1.16976H3.10667V2.02234H2.2168V0.722161C2.2168 0.477046 2.41929 0.279888 2.65907 0.279888H6.66083C6.91128 0.274559 7.10844 0.477046 7.10844 0.722161Z" fill="white"/>
<path id="Vector_13" d="M21.7774 0.722161V2.02234H20.8875V1.16976H17.7756V2.02234H16.8857V0.722161C16.8857 0.477046 17.0882 0.279888 17.328 0.279888H21.3298C21.5749 0.274559 21.7774 0.477046 21.7774 0.722161Z" fill="white"/>
<path id="Vector_14" d="M21.5126 2.90674C21.4593 2.92805 21.3954 2.94404 21.3368 2.94404H17.335C17.2711 2.94404 17.2125 2.92805 17.1592 2.90674H21.5126Z" fill="white"/>
<path id="Vector_15" d="M5.32985 12.2744V12.7167C5.32985 12.9618 5.12736 13.159 4.88757 13.159C4.64246 13.159 4.44531 12.9565 4.44531 12.7167V12.2744H5.32985Z" fill="white"/>
<path id="Vector_16" d="M5.32932 10.9423V11.3845H4.43945V10.9423C4.43945 10.6972 4.64194 10.5 4.88173 10.5C5.13217 10.5 5.32932 10.6972 5.32932 10.9423Z" fill="white"/>
<path id="Vector_17" d="M4.44412 11.3904V12.2803H4.00185C3.75673 12.2803 3.55957 12.0778 3.55957 11.838C3.55957 11.5982 3.76206 11.3957 4.00185 11.3957H4.44412V11.3904Z" fill="white"/>
<path id="Vector_18" d="M6.21852 11.8326C6.21852 12.0777 6.01605 12.2749 5.77626 12.2749H5.33398V11.385H5.77626C6.02137 11.3903 6.21852 11.5875 6.21852 11.8326Z" fill="white"/>
<path id="Vector_19" d="M5.33518 11.3904H4.44531V12.2803H5.33518V11.3904Z" fill="white"/>
<path id="Vector_20" d="M20.4465 11.8327C20.4465 12.0778 20.244 12.2749 20.0043 12.2749H18.2245C17.9794 12.2749 17.7822 12.0724 17.7822 11.8327C17.7822 11.5929 17.9847 11.3904 18.2245 11.3904H20.0043C20.244 11.3904 20.4465 11.5875 20.4465 11.8327Z" fill="white"/>
</g>
</svg>
