<svg width="41" height="25" viewBox="0 0 41 25" fill="none" xmlns="http://www.w3.org/2000/svg">
<g id="Frame" clip-path="url(#clip0_2050_1836)">
<g id="Group">
<g id="Group_2">
<path id="Vector" d="M36.2937 19.2987C36.4091 19.2065 36.5129 19.1142 36.5936 19.0104C37.447 18.4222 37.6315 17.3727 37.597 16.9691C37.5739 16.75 37.4009 15.8619 37.2971 14.847C37.2279 14.1666 37.3432 13.4054 37.0434 12.8172C36.6859 12.1022 36.0285 12.0791 35.867 11.8946C32.5455 8.13487 30.5503 8.45779 29.4086 8.40013C29.0395 8.38859 20.8512 8.33093 18.8329 8.46932C17.7834 8.53852 16.953 8.67692 16.2495 8.87298C18.3831 8.74611 24.0919 8.82684 26.2024 8.87298C26.8598 8.88451 26.6868 9.18437 26.5369 9.40349C25.6834 10.6721 24.7262 11.8139 23.8382 12.6788C23.4922 13.0248 23.0655 13.3131 22.5004 13.3131C22.5004 13.3131 20.5282 13.5784 14.831 13.5092C11.7978 13.4746 10.2639 13.4861 9.57196 13.4977C9.31824 13.5784 5.8007 14.6048 4.30142 15.6197C4.23222 15.6659 4.16303 15.712 4.10536 15.7581C4.62434 15.9542 5.14332 16.3002 5.44318 16.5193C5.45471 16.5308 5.46625 16.5308 5.48931 16.5424C5.54698 16.577 5.59311 16.6231 5.65077 16.6692C5.6969 16.7038 5.71997 16.7154 5.71997 16.7154C5.71997 16.7154 5.70844 16.7154 5.70844 16.7038C5.77763 16.773 5.85836 16.8307 5.91603 16.8999C5.95063 16.9345 5.97369 16.9576 5.99676 16.9922C6.04289 17.0498 6.06596 17.0959 6.08902 17.1536L6.44654 17.1767L6.57341 17.1882C6.59647 17.1421 6.61954 17.0959 6.6426 17.0383C6.85019 16.6116 7.17312 15.9773 7.42684 15.8273C7.81896 15.6082 10.1947 14.6394 10.1947 14.6394C10.1947 14.6394 8.29181 15.7466 7.93429 15.9311C7.74976 16.0234 7.6229 16.427 7.54217 16.7961C7.50757 16.9691 7.47297 17.1305 7.44991 17.2574H7.5191L8.59167 17.3381H8.6032L9.75649 17.292L10.2755 17.2689C10.3101 17.1882 10.3562 17.0729 10.4139 16.9576C10.5753 16.6231 10.7945 16.1964 11.002 15.9657C11.0597 15.9081 11.1058 15.8504 11.1635 15.8273C11.5556 15.6082 14.4735 14.4088 14.4735 14.4088C14.4735 14.4088 12.4667 15.4929 11.8209 15.8389C11.7517 15.8735 11.7056 15.9081 11.671 15.9196C11.4057 16.058 11.2558 16.8307 11.1866 17.2228L13.3663 17.1421C13.424 17.0959 13.4701 17.0498 13.5162 17.0152C13.5624 16.9806 13.597 16.946 13.6431 16.923C13.7353 16.8538 13.8276 16.7961 13.966 16.7038C13.9545 16.7038 13.9545 16.7038 13.9429 16.7154C13.9429 16.7154 13.9775 16.6923 14.0352 16.6692C14.1044 16.6231 14.1851 16.577 14.2543 16.5424C14.2774 16.5308 14.2889 16.5308 14.312 16.5193C14.7272 16.3002 15.4538 15.9542 16.1803 15.7581C16.2957 15.7235 16.411 15.7005 16.5378 15.6774C16.584 15.6659 16.6416 15.6543 16.6878 15.6543C17.5297 15.5159 18.1986 15.4467 18.7176 15.4352C19.0982 15.4237 19.3865 15.4467 19.5941 15.5044C19.744 15.539 19.8478 15.5967 19.9055 15.6659C20.1131 15.9427 19.9862 16.5539 19.4787 16.9691C19.6633 16.6346 19.6748 16.2771 19.5364 16.0926L19.5249 16.0811C19.4211 16.3232 19.1674 16.8307 18.7291 16.9345C18.51 16.9806 17.5527 17.0383 17.2529 17.0844C16.953 17.1305 16.5263 16.8538 16.5263 16.8538C16.434 16.9806 16.1919 17.2343 16.0073 17.3381C15.8343 17.4304 14.8079 17.5111 14.3812 17.4765L13.3432 17.5457H13.3086L11.1174 17.5803L10.4946 17.5919L9.76802 17.6034L9.31824 17.6149L8.52247 17.6265L8.38407 17.6149L7.10392 17.5573L6.13515 17.5111H6.03136L5.07413 17.465L5.08566 17.4535C4.7512 17.4419 4.32449 17.3843 4.23222 17.3151C4.09383 17.2228 3.93237 16.9691 3.86317 16.8307C3.86317 16.8307 3.56331 17.1075 3.35572 17.0613C3.29806 17.0498 3.20579 17.0383 3.102 17.0152C3.0328 17.1882 2.9636 17.3843 2.90594 17.6034C2.81367 17.9494 2.74448 18.353 2.70988 18.8259C2.65221 19.4602 2.70988 19.9907 2.87134 20.4405C3.04433 20.4636 3.62098 20.4982 3.8401 19.76C4.0131 19.1488 4.43982 18.9066 5.23559 18.8144C5.31632 18.8028 5.39705 18.7913 5.48931 18.7913C5.93909 18.7567 6.49267 18.7452 7.16158 18.7452C7.36918 18.7452 7.5883 18.7452 7.81896 18.7336C7.96889 18.7336 8.11882 18.7336 8.28028 18.7221H8.31488C8.36101 18.7221 8.39561 18.7221 8.44174 18.7221C8.534 18.7221 8.6378 18.7221 8.73006 18.7221C8.89152 18.7221 9.05298 18.7106 9.21444 18.7106C9.39897 18.7106 9.5835 18.699 9.75649 18.699C9.94102 18.699 10.114 18.699 10.287 18.6875C10.3447 18.6875 10.4139 18.6875 10.4715 18.6875C10.7368 18.6875 10.9905 18.6875 11.2442 18.6875C11.2904 18.6875 11.3365 18.6875 11.3826 18.6875C11.4864 18.6875 11.5902 18.6875 11.694 18.6875C12.9165 18.7106 13.9314 18.7798 14.5427 18.9758C14.6695 19.0104 14.7733 19.0565 14.8656 19.1027C15.1654 19.2641 15.4422 19.4717 15.7075 19.6563C16.238 20.0368 16.7454 20.4059 17.3106 20.4174C17.8295 20.4405 18.5446 20.452 19.0636 20.4751C19.4557 20.4866 19.744 20.4866 19.7555 20.4866C19.7555 20.4866 19.4557 20.5328 19.0636 20.5789C18.4062 20.6712 17.4835 20.7865 17.2875 20.7749C16.6186 20.7519 16.0419 20.3367 15.4884 19.9446C15.2231 19.7601 14.9578 19.564 14.681 19.4141C14.3581 19.2411 13.7469 19.1373 12.9511 19.0911C12.5936 19.0681 12.213 19.0565 11.7978 19.045C11.7056 19.045 11.6133 19.045 11.521 19.045C11.4634 19.045 11.3942 19.045 11.3365 19.045C11.1058 19.045 10.8637 19.045 10.6099 19.045C10.5869 19.045 10.5638 19.045 10.5407 19.045C10.287 19.045 10.0217 19.045 9.75649 19.0565C9.49123 19.0565 9.22598 19.0681 8.96072 19.0681C8.83386 19.0681 8.71853 19.0681 8.59167 19.0796C8.4994 19.0796 8.40714 19.0796 8.31488 19.0796H8.30334H8.28028C8.08422 19.0796 7.88816 19.0911 7.70363 19.0911C7.50757 19.0911 7.32304 19.0911 7.15005 19.0911C6.38888 19.1027 5.81223 19.1027 5.37398 19.1488C5.14332 19.1719 4.94726 19.2065 4.7858 19.2526C4.43982 19.3564 4.26682 19.5409 4.17456 19.8408C4.16303 19.8754 4.15149 19.91 4.13996 19.933C4.0823 20.0945 4.0131 20.2214 3.93237 20.3252C3.78244 20.5212 3.59791 20.6481 3.40185 20.7173C3.27499 20.7634 3.1366 20.7865 3.02127 20.7865C2.90594 20.7865 2.81367 20.7749 2.73294 20.7634L2.76754 20.6135C1.69498 20.9018 0.89921 21.2132 0.449426 21.5361C-1.82256 23.1507 5.30478 24.4655 16.3649 24.4655C27.4365 24.4655 38.2428 23.1507 40.5263 21.5361C41.7834 20.6596 40.0535 19.8408 36.2937 19.2987ZM35.9362 19.5409C35.6825 20.2098 35.2212 20.6596 34.7137 20.6596C34.6676 20.6596 34.633 20.6596 34.5869 20.6481C34.3447 20.6135 34.1255 20.4866 33.9295 20.279C33.6642 20.0022 33.4566 19.5871 33.3528 19.0911C33.5374 19.6332 33.8372 20.0484 34.1947 20.2098C34.3101 20.2675 34.4254 20.2906 34.5523 20.2906C34.5638 20.2906 34.5753 20.2906 34.5869 20.2906C34.8867 20.279 35.175 20.0945 35.3942 19.8062C35.521 19.6447 35.6248 19.4487 35.7056 19.218C35.8439 18.8489 35.9247 18.3992 35.9247 17.9263C35.9247 17.2805 35.7747 16.7038 35.5326 16.2771C35.9131 16.7154 36.1553 17.4304 36.1553 18.2492C36.1553 18.6068 36.1092 18.9527 36.0169 19.2526C35.9939 19.3564 35.9708 19.4487 35.9362 19.5409ZM34.5753 19.4487C34.3447 19.4487 34.1371 19.2872 33.9871 19.0335C33.9756 19.0104 33.9641 18.9873 33.941 18.9643C33.9641 18.9873 33.9871 19.0219 34.0217 19.045C34.1486 19.1603 34.2985 19.2295 34.46 19.2295C34.5061 19.2295 34.5407 19.218 34.5869 19.218C34.6561 19.2065 34.7253 19.1719 34.7945 19.1257C35.1174 18.9066 35.3596 18.3876 35.3596 17.7764C35.3596 17.6726 35.348 17.5803 35.3365 17.4881C35.3826 17.6611 35.4172 17.8687 35.4172 18.0762C35.4172 18.5145 35.2904 18.9066 35.0943 19.1603C34.9559 19.3333 34.7714 19.4487 34.5753 19.4487ZM36.386 18.1339C36.4206 17.6841 36.4321 17.2113 36.3629 16.75C36.2822 16.2425 36.0977 15.7697 35.7286 15.4237C35.3365 15.0662 34.7483 14.9508 34.1255 15.3545C33.9295 15.4813 33.7334 15.6543 33.5489 15.885C33.5258 15.9196 33.5028 15.9542 33.4797 15.9888C33.4682 16.0119 33.4566 16.0349 33.4451 16.058C33.1106 16.6346 32.9261 17.7418 32.8339 18.4684C32.8108 18.6529 32.7993 18.8144 32.7877 18.9412C32.7762 19.0796 32.7647 19.1603 32.7647 19.1603C32.7647 19.1603 32.7531 19.0796 32.7416 18.9297C32.6955 18.4799 32.6032 17.4535 32.7185 16.5885C32.7301 16.4616 32.7531 16.3463 32.7762 16.231C32.8454 15.9196 32.9377 15.6543 33.053 15.4352L31.819 15.7466L25.695 17.2805C25.891 17.6265 26.0294 18.0532 26.0756 18.5837C26.0756 18.6068 26.0756 18.6298 26.0756 18.6644C26.0986 19.0335 26.0871 19.391 26.0525 19.7024C26.0294 19.91 25.9948 20.0945 25.9718 20.2444L26.0756 19.7831L31.0232 19.0681L31.2769 19.0335L31.0347 19.1027L26.2486 20.5328L25.891 20.6366C25.9718 20.2906 26.0179 19.8984 26.0064 19.5179C26.0064 19.2295 25.9718 18.9297 25.9141 18.6644C25.7988 18.0878 25.5566 17.6034 25.2221 17.3727C25.003 17.2113 24.6686 17.0959 24.2995 17.0267C24.0688 16.9922 23.8151 16.9806 23.5614 17.0037C23.1231 17.0383 22.6849 17.1767 22.3043 17.465C22.1659 17.5688 22.0275 17.6957 21.9122 17.8456C21.9007 17.8571 21.8891 17.8802 21.8776 17.9032C21.7046 18.1339 21.5662 18.3992 21.4509 18.699C21.2202 19.3333 21.1164 20.106 21.0933 20.9941C21.0933 20.9941 20.9319 20.106 20.9896 19.2065C21.0011 19.045 21.0126 18.872 21.0472 18.7106C21.0703 18.6068 21.0933 18.503 21.1164 18.3992C21.324 17.6726 21.6123 17.1651 21.9583 16.8307C22.558 16.231 23.3307 16.1272 24.1034 16.2194C24.4725 16.2656 24.8646 16.4155 25.1991 16.6808L33.226 15.193C33.6296 14.6048 34.2178 14.4203 34.8636 14.4664C35.5672 14.5126 36.1784 15.0892 36.3745 16.0695C36.4552 16.4501 36.4783 16.8422 36.4783 17.1767C36.4437 17.7187 36.386 18.1339 36.386 18.1339ZM25.2913 21.7783C24.9915 22.724 24.3918 23.3699 23.6998 23.3699C23.6421 23.3699 23.596 23.3699 23.5383 23.3583C23.0424 23.2891 22.6042 22.8739 22.3043 22.2742C22.1774 22.0205 22.0852 21.7322 22.016 21.4208C22.1198 21.7437 22.2582 22.0205 22.4196 22.2512C22.7195 22.6663 23.0885 22.9201 23.5037 22.9201C23.5153 22.9201 23.5268 22.9201 23.5383 22.9201C24.0573 22.897 24.5071 22.4934 24.8185 21.859C25.0607 21.3516 25.2106 20.7057 25.2106 20.0022C25.2106 19.5179 25.1414 19.0565 25.0145 18.6529C24.9338 18.3992 24.8415 18.1685 24.7262 17.9609C24.8877 18.1454 25.0376 18.3876 25.1529 18.6529C25.3721 19.1488 25.4989 19.7485 25.4989 20.3944C25.4989 20.8903 25.4297 21.3631 25.2913 21.7783ZM23.3999 21.5823C23.4461 21.5823 23.5037 21.5707 23.5499 21.5592C24.0919 21.4439 24.4956 20.6942 24.4956 19.7831C24.4956 19.6563 24.484 19.5409 24.4725 19.4256C24.5302 19.6447 24.5763 19.8869 24.5763 20.1522C24.5763 21.0979 24.115 21.859 23.5499 21.859C23.2385 21.859 22.9617 21.6284 22.7656 21.2593C22.9386 21.4669 23.1577 21.5823 23.3999 21.5823ZM27.2173 9.65722C27.4941 9.1613 28.1861 8.82684 28.5897 8.82684H29.3394C29.3394 8.82684 30.2966 8.80378 30.5965 8.84991C32.5801 9.13823 34.4254 11.3756 34.5292 11.6409C34.6561 11.9753 34.6791 12.1253 34.1371 12.2291L26.1563 13.1402C26.0986 13.1517 26.041 13.1286 25.9948 13.1056C26.1217 13.0364 26.2486 12.9672 26.3639 12.9095C26.7906 12.7365 28.682 12.6558 28.9588 12.5404C29.5008 12.3098 29.5816 11.8023 29.4778 11.4218C29.374 11.0527 28.5436 10.9374 27.8632 10.9374C27.1712 10.9374 26.9405 11.2257 26.5715 11.6639C26.4331 11.8369 26.2716 11.9869 26.1217 12.1253C26.5715 10.9604 26.8483 10.3377 27.2173 9.65722ZM11.6018 22.1589C11.5095 22.1589 11.4288 22.1589 11.3365 22.1589C11.175 22.1589 11.002 22.1589 10.8406 22.1589C10.4485 22.1589 10.0794 22.1589 9.72189 22.1589C9.30671 22.1589 8.90306 22.1589 8.534 22.1589C8.4994 22.1589 8.4648 22.1589 8.43021 22.1589C8.23415 22.1589 8.03809 22.1589 7.85356 22.1589C6.94246 22.1589 6.16975 22.1358 5.51238 22.0897C5.35092 22.0782 5.20099 22.0666 5.05106 22.0436C4.7858 22.009 4.53208 21.9628 4.31295 21.8821C4.48595 21.5015 4.83193 21.1555 5.25865 21.0171C5.35092 20.9825 5.44318 20.9595 5.54698 20.9479C5.78917 20.9249 6.57341 20.8903 7.56524 20.8787C7.73823 20.8787 7.92276 20.8787 8.11882 20.8787C8.30334 20.8787 8.4994 20.8787 8.69546 20.8787C8.73006 20.8787 8.76466 20.8787 8.79926 20.8787C9.11065 20.8787 9.42204 20.8787 9.73343 20.8903C9.97562 20.8903 10.2178 20.9018 10.4485 20.9133C10.5177 20.9133 10.5869 20.9133 10.6561 20.9249C10.8752 20.9364 11.1058 20.9479 11.3134 20.9595C11.4288 20.971 11.5441 20.971 11.6594 20.9825C11.7402 20.9825 11.8094 20.9941 11.8901 20.9941C12.04 21.0056 12.1784 21.0171 12.3168 21.0287H11.8785L11.6479 21.0402L11.2904 21.0633L10.5984 21.0979L10.3331 21.1094L9.73343 21.144L8.91459 21.1901H8.89152L8.17648 21.2247L7.63443 21.2478L6.08902 21.3285L7.6575 21.3747L8.21108 21.3862L9.05298 21.4093H9.12218L9.74496 21.4323L10.0217 21.4439L10.4023 21.4554L11.1635 21.4785L11.5556 21.49L11.7863 21.5015L14.2082 21.5707L11.7517 21.6399L11.5095 21.6514L11.0943 21.663L10.1832 21.686L9.72189 21.6976L9.29517 21.7091L8.31488 21.7322H8.28028L7.7267 21.7437L7.02319 21.7668L7.74976 21.8244L8.32641 21.8706H8.38407L9.73343 21.9744L10.9098 22.0666L11.3711 22.1012L11.6248 22.1243L12.3745 22.182C12.1092 22.1704 11.8439 22.1589 11.6018 22.1589Z" fill="#222222"/>
<path id="Vector_2" d="M10.1945 12.8402C10.2407 12.8518 10.2983 12.8633 10.3445 12.8863C10.8058 12.5173 11.4286 12.0214 12.0398 11.5255C11.2325 11.3986 10.5405 11.4563 10.1945 11.8138C9.80243 12.2174 9.87162 12.7826 10.1945 12.8402Z" fill="#222222"/>
<path id="Vector_3" d="M3.45973 16.6462C3.58659 16.5654 3.69039 16.404 3.73652 16.231C3.73652 16.2079 3.74805 16.1849 3.74805 16.1503C3.72499 16.1387 3.69039 16.1387 3.66732 16.1272C3.5174 16.2771 3.39053 16.4501 3.26367 16.6577C3.35594 16.6692 3.43667 16.6577 3.45973 16.6462Z" fill="#222222"/>
<path id="Vector_4" d="M4.42746 17.0499C4.50819 17.096 4.75038 17.2113 5.38469 17.2574C5.43083 17.2574 5.54615 17.1882 5.66148 17.096C5.20017 16.7615 4.49666 16.3694 4.04688 16.2195C4.04688 16.3463 4.04688 16.4501 4.05841 16.4963C4.10454 16.6923 4.34673 17.0153 4.42746 17.0499Z" fill="#222222"/>
<path id="Vector_5" d="M16.1794 16.5077C16.2025 16.4501 16.2025 16.3232 16.191 16.1848C15.3837 16.3347 14.5302 16.7153 13.8613 17.0844C14.0343 17.1882 14.2073 17.2689 14.2765 17.2689C15.1761 17.2228 15.5221 17.0959 15.6489 17.0613C15.7758 17.0152 16.1218 16.6923 16.1794 16.5077Z" fill="#222222"/>
<path id="Vector_6" d="M17.0457 16.6462C17.1379 16.6808 17.876 16.6462 18.1067 16.5539C18.2451 16.5078 18.5911 16.3463 18.6487 16.1618C18.6603 16.1157 18.6718 16.0119 18.6833 15.885C18.1759 15.885 17.4724 15.9657 16.6074 16.1041C16.619 16.1503 16.6305 16.1849 16.642 16.2195C16.7112 16.404 16.8727 16.5655 17.0457 16.6462Z" fill="#222222"/>
</g>
<g id="Group_3">
<path id="Vector_7" d="M15.2465 9.24195C15.0159 8.99976 14.8429 8.6999 14.7852 8.35392L14.5891 7.21216L14.3931 8.35392C14.2778 9.05742 13.7242 9.611 13.0207 9.72633L11.8789 9.92239L13.0207 10.1185C13.2167 10.1531 13.4128 10.2222 13.5742 10.3145C14.001 10.5567 14.3008 10.9834 14.3931 11.4793L14.5891 12.6211L14.7852 11.4793C14.9005 10.7758 15.4541 10.2222 16.1576 10.1069L17.2994 9.91086L16.1576 9.7148C15.8001 9.65714 15.4887 9.49568 15.2465 9.24195Z" fill="#222222"/>
<path id="Vector_8" d="M36.0517 7.08525C35.6019 7.00452 35.2444 6.65854 35.1752 6.20875L35.0483 5.48218L34.9214 6.20875C34.8407 6.65854 34.4947 7.01606 34.0449 7.08525L33.3184 7.21212L34.0449 7.33898C34.4947 7.41971 34.8522 7.7657 34.9214 8.21548L35.0483 8.94205L35.1752 8.21548C35.2559 7.7657 35.6019 7.40817 36.0517 7.33898L36.7782 7.21212L36.0517 7.08525Z" fill="#222222"/>
<path id="Vector_9" d="M29.5132 3.41789C29.8015 3.70621 29.7439 4.30592 29.421 4.72111C28.9596 5.30928 28.3484 5.62067 27.8064 5.56301L26.1571 5.35542C25.4882 5.28622 24.7963 3.72927 24.5771 3.0719C24.358 2.43759 23.8967 0.488525 23.8967 0.488525C23.8967 0.488525 23.4238 2.43759 23.2162 3.0719C22.9971 3.72927 22.3052 5.27469 21.6362 5.35542L19.987 5.56301C19.445 5.62067 18.8337 5.30928 18.3724 4.72111C18.0495 4.30592 18.0034 3.70621 18.2802 3.41789L18.5224 3.1757C17.8419 2.97964 16.5156 2.32226 16.5156 2.32226L18.3263 6.01279C18.6492 6.6817 19.3297 7.09689 20.0678 7.09689H27.7372C28.4753 7.09689 29.1557 6.67017 29.4786 6.01279L31.2893 2.32226C31.2893 2.32226 29.9745 2.97964 29.2826 3.1757L29.5132 3.41789Z" fill="#222222"/>
</g>
</g>
</g>
<defs>
<clipPath id="clip0_2050_1836">
<rect width="40.9188" height="24" fill="white" transform="translate(0 0.5)"/>
</clipPath>
</defs>
</svg>
