<svg width="24" height="25" viewBox="0 0 24 25" fill="none" xmlns="http://www.w3.org/2000/svg">
<g id="Frame" clip-path="url(#clip0_2050_1872)">
<path id="Vector" d="M21.9263 0.64824C20.8152 0.277869 19.2596 0.574166 18.667 2.2038L18.5929 2.27787C18.0003 3.83342 18.4448 5.31491 18.7411 6.50009C18.9633 7.31491 19.1855 8.05565 19.0374 8.64824C18.8152 9.31491 18.3707 9.6112 17.7041 10.1297C16.8892 10.7223 15.9263 11.4631 14.9633 12.9445C14.1485 14.1297 13.7041 15.9816 13.63 17.6112C13.4818 17.6112 13.4078 17.6112 13.2596 17.6112C12.4448 17.6112 11.9263 17.8334 11.4078 17.9816C10.8152 18.2038 10.2966 18.3519 9.40776 18.2779C8.51887 18.2038 7.92628 17.8334 7.33368 17.389C6.59294 16.8705 5.77813 16.2779 4.22257 16.2779C2.00035 16.2779 0.1485 17.9075 0.0744257 19.9816C0.000351593 20.8705 0.444796 21.8334 1.18554 22.426C1.25961 22.5001 1.33368 22.5001 1.40776 22.5742C1.62998 23.4631 2.37072 24.1297 3.33368 24.1297H17.2596C17.63 24.3519 18.0744 24.5001 18.5929 24.5001C20.0003 24.5001 21.1115 23.389 21.1115 21.9816C21.1115 21.0927 20.667 20.3519 20.0003 19.8334L23.7041 3.83343C24.1485 2.12972 23.1115 1.01861 21.9263 0.64824ZM0.741092 20.1297C0.815166 18.5001 2.37072 17.1668 4.1485 17.1668C5.40776 17.1668 6.07442 17.6112 6.81517 18.1297C7.48183 18.5742 8.1485 19.0927 9.25961 19.1668C10.3707 19.2408 10.9633 19.0186 11.63 18.7964C12.1485 18.6482 12.5929 18.5001 13.2596 18.5001C13.4078 18.5001 13.4818 18.5001 13.63 18.5001C13.63 19.3149 13.7781 20.0556 14.0744 20.5001C14.4448 21.0927 14.8152 21.6112 15.2596 21.9816H1.70406L1.62998 21.9075C1.03739 21.4631 0.741092 20.7964 0.741092 20.1297ZM23.0374 3.68528L19.1855 19.6112C18.9633 19.5371 18.7411 19.5371 18.4448 19.5371C17.1855 19.5371 16.1485 20.5001 15.9263 21.6853C15.4078 21.389 17.63 23.6667 17.2596 23C16.5929 21.6667 17.7781 22.9259 19.0374 21C20.0003 19.5926 20.0003 15 20.5005 14.1744C21.2412 13.6559 21.3347 10.3889 21.631 9.5C21.8533 8.68519 22.7968 7.96296 22.5005 7C22.2042 5.88889 22.982 5.33333 23.5005 4L19.5005 3C19.5005 4 19.8338 4.5 20.5005 4.5C20.7227 4.5 21.7783 4.92593 22.0005 5C22.8894 5.2963 23.3337 2.42602 23.0374 3.68528Z" fill="#222222"/>
</g>
<defs>
<clipPath id="clip0_2050_1872">
<rect width="23.8519" height="24" fill="white" transform="translate(0 0.5)"/>
</clipPath>
</defs>
</svg>
