<svg width="20" height="19" viewBox="0 0 20 19" fill="none" xmlns="http://www.w3.org/2000/svg">
<path fill-rule="evenodd" clip-rule="evenodd" d="M13.0402 1.55126C14.0502 1.95326 14.3592 3.35326 14.7722 3.80326C15.1852 4.25326 15.7762 4.40626 16.1032 4.40626C17.8412 4.40626 19.2502 5.81526 19.2502 7.55226V13.3473C19.2502 15.6773 17.3602 17.5673 15.0302 17.5673H4.97024C2.63924 17.5673 0.750244 15.6773 0.750244 13.3473V7.55226C0.750244 5.81526 2.15924 4.40626 3.89724 4.40626C4.22324 4.40626 4.81424 4.25326 5.22824 3.80326C5.64124 3.35326 5.94924 1.95326 6.95924 1.55126C7.97024 1.14926 12.0302 1.14926 13.0402 1.55126Z" stroke="#333333" strokeWidth="1.5" strokeLinecap="round" strokeLinejoin="round"/>
<path d="M15.4955 7H15.5045" stroke="#333333" strokeWidth="2" strokeLinecap="round" strokeLinejoin="round"/>
<path fill-rule="evenodd" clip-rule="evenodd" d="M13.1789 10.628C13.1789 8.87197 11.7559 7.44897 9.99992 7.44897C8.24392 7.44897 6.82092 8.87197 6.82092 10.628C6.82092 12.384 8.24392 13.807 9.99992 13.807C11.7559 13.807 13.1789 12.384 13.1789 10.628Z" stroke="#333333" strokeWidth="1.5" strokeLinecap="round" strokeLinejoin="round"/>
</svg>
