<svg width="272" height="180" viewBox="0 0 272 180" fill="none" xmlns="http://www.w3.org/2000/svg">
<circle opacity="0.5" cx="130.456" cy="97.4556" r="34.4556" stroke="#20C290" strokeWidth="2"/>
<circle cx="130.459" cy="97.4553" r="25.0783" fill="url(#paint0_linear_604_9007)"/>
<path d="M122.385 97.4565L128.15 103.222L139.68 91.6914" stroke="white" strokeWidth="2" strokeLinecap="round" strokeLinejoin="round"/>
<path d="M201.432 123.579C201.65 122.512 203.174 122.512 203.392 123.579L204.612 129.546C204.692 129.939 204.999 130.246 205.391 130.326L211.359 131.546C212.425 131.764 212.425 133.287 211.359 133.505L205.391 134.725C204.999 134.805 204.692 135.112 204.612 135.504L203.392 141.472C203.174 142.539 201.65 142.539 201.432 141.472L200.213 135.504C200.132 135.112 199.826 134.805 199.433 134.725L193.465 133.505C192.399 133.287 192.399 131.764 193.465 131.546L199.433 130.326C199.826 130.246 200.132 129.939 200.213 129.546L201.432 123.579Z" fill="#FFC747"/>
<path d="M35.6355 158.388C35.8535 157.322 37.3771 157.322 37.595 158.388L38.6593 163.595C38.7396 163.988 39.0463 164.295 39.4388 164.375L44.6461 165.439C45.7124 165.657 45.7124 167.181 44.6461 167.399L39.4388 168.463C39.0463 168.543 38.7396 168.85 38.6593 169.243L37.595 174.45C37.3771 175.516 35.8535 175.516 35.6355 174.45L34.5712 169.243C34.491 168.85 34.1842 168.543 33.7917 168.463L28.5845 167.399C27.5181 167.181 27.5181 165.657 28.5845 165.439L33.7917 164.375C34.1842 164.295 34.491 163.988 34.5712 163.595L35.6355 158.388Z" fill="#20C290"/>
<path opacity="0.2" d="M158.977 35.7935C159.195 34.7271 160.719 34.7271 160.937 35.7935L162.001 41.0007C162.081 41.3932 162.388 41.7 162.781 41.7802L167.988 42.8445C169.054 43.0625 169.054 44.5861 167.988 44.804L162.781 45.8683C162.388 45.9486 162.081 46.2553 162.001 46.6478L160.937 51.8551C160.719 52.9214 159.195 52.9214 158.977 51.8551L157.913 46.6478C157.833 46.2553 157.526 45.9486 157.134 45.8683L151.926 44.804C150.86 44.5861 150.86 43.0625 151.926 42.8445L157.134 41.7802C157.526 41.7 157.833 41.3932 157.913 41.0007L158.977 35.7935Z" fill="#20C290"/>
<path d="M23.7254 66.7856C23.9433 65.7193 25.4669 65.7193 25.6849 66.7856L27.2156 74.2746C27.2958 74.6671 27.6025 74.9739 27.9951 75.0541L35.484 76.5848C36.5503 76.8027 36.5503 78.3263 35.484 78.5443L27.9951 80.0749C27.6025 80.1552 27.2958 80.4619 27.2156 80.8544L25.6849 88.3434C25.4669 89.4097 23.9433 89.4097 23.7254 88.3434L22.1947 80.8544C22.1145 80.4619 21.8077 80.1552 21.4152 80.0749L13.9263 78.5443C12.8599 78.3263 12.8599 76.8027 13.9263 76.5848L21.4152 75.0541C21.8077 74.9739 22.1145 74.6671 22.1947 74.2746L23.7254 66.7856Z" fill="#FFC747"/>
<path d="M60.0003 21.5344C58.3852 22.6111 54.3923 21.0858 52.5978 20.1885C51.9248 22.8803 49.233 21.5344 49.9059 22.8803C50.5789 24.2262 55.9626 25.5722 58.6544 25.5722C60.8079 25.5722 60.449 22.8803 60.0003 21.5344Z" fill="#6A61D4"/>
<path d="M21.5334 2.86531C22.6102 3.69014 21.0848 5.7293 20.1875 6.64578C22.8793 6.98946 21.5334 8.36418 22.8793 8.0205C24.2253 7.67682 25.5712 4.92739 25.5712 3.55267C25.5712 2.4529 22.8793 2.63619 21.5334 2.86531Z" fill="#3E83EF"/>
<path d="M130.366 26.046C131.685 25.0701 134.614 26.832 135.913 27.8348C136.64 25.192 138.589 26.6964 138.181 25.314C137.773 23.9316 133.768 22.2647 131.713 22.1021C130.068 21.972 130.13 24.6771 130.366 26.046Z" fill="#9AE3EF"/>
<path d="M3.7611 27.7915C3.31751 26.2125 6.00526 24.1009 7.40458 23.2425C5.19239 21.6245 7.29138 20.3369 5.85432 20.2267C4.41726 20.1166 1.43571 23.2678 0.553137 25.1315C-0.152918 26.6224 2.39759 27.5261 3.7611 27.7915Z" fill="#9AE3EF"/>
<path d="M208.536 6.11995C207.954 7.69351 210.52 10.0681 211.876 11.0588C209.487 12.5263 211.521 14.0123 210.047 14.0061C208.573 14 205.792 10.541 205.046 8.5679C204.449 6.98944 207.124 6.27824 208.536 6.11995Z" fill="#9AE3EF"/>
<path d="M162.651 9.58703C163.45 8.15433 166.844 8.55123 168.442 8.92877C168.014 6.22171 170.41 6.78802 169.468 5.6969C168.527 4.60578 164.191 4.73923 162.251 5.43898C160.699 5.99878 161.871 8.4376 162.651 9.58703Z" fill="#F19F94"/>
<path d="M83.7156 6.45031C84.514 5.01762 87.9089 5.41451 89.5065 5.79205C89.078 3.08499 91.4745 3.6513 90.5328 2.56018C89.5911 1.46906 85.255 1.60251 83.3153 2.30226C81.7635 2.86207 82.9356 5.30088 83.7156 6.45031Z" fill="#4387EB"/>
<path d="M114.42 122.261C114.079 120.657 116.897 118.722 118.348 117.956C116.245 116.199 118.422 115.049 116.995 114.847C115.568 114.644 112.39 117.597 111.389 119.4C110.589 120.843 113.076 121.908 114.42 122.261Z" fill="#9DE1F0"/>
<path d="M50.1374 83.4375C51.5703 82.6395 54.2482 84.7636 55.408 85.9254C56.4682 83.398 58.2079 85.1408 57.9814 83.7174C57.755 82.294 53.9976 80.1255 51.98 79.6997C50.3659 79.359 50.0791 82.0496 50.1374 83.4375Z" fill="#9DE1F0"/>
<path d="M270.857 34.1845C268.051 35.5552 263.177 31.2421 261.09 28.9141C258.815 33.6112 255.686 30.1194 255.971 32.849C256.256 35.5787 263.178 40.0868 266.971 41.1031C270.005 41.9161 270.826 36.8295 270.857 34.1845Z" fill="#F3BB45"/>
<defs>
<linearGradient id="paint0_linear_604_9007" x1="105.381" y1="97.4553" x2="155.537" y2="97.4553" gradientUnits="userSpaceOnUse">
<stop stop-color="#52BAE6"/>
<stop offset="0.9999" stop-color="#67F2D1"/>
<stop offset="1" stop-color="#51C2A7"/>
</linearGradient>
</defs>
</svg>
