<svg xmlns="http://www.w3.org/2000/svg" width="142" height="141" viewBox="0 0 142 141" fill="none">
  <path d="M32.2548 123.491C30.6722 125.656 27.622 126.14 25.5714 124.412C15.4678 115.898 7.93315 104.692 3.87455 92.0505C-0.680064 77.8638 -0.62282 62.5988 4.03807 48.4467C8.69895 34.2945 17.7238 21.983 29.8172 13.2791C41.9106 4.57531 56.4507 -0.0731914 71.3504 0.000870944C86.2501 0.0749333 100.743 4.86775 112.75 13.6914C124.756 22.515 133.658 34.9157 138.178 49.1134C142.698 63.3112 142.603 78.576 137.908 92.7167C133.724 105.317 126.078 116.448 115.89 124.861C113.823 126.568 110.777 126.054 109.216 123.874C107.655 121.693 108.172 118.675 110.221 116.945C118.749 109.743 125.155 100.309 128.692 89.6567C132.741 77.4637 132.823 64.3014 128.925 52.0591C125.028 39.8169 117.352 29.1242 106.999 21.5159C96.6466 13.9076 84.1497 9.77491 71.3022 9.71105C58.4547 9.64719 45.9172 13.6554 35.4895 21.1604C25.0618 28.6654 17.28 39.2813 13.2611 51.4842C9.24213 63.6871 9.19277 76.8495 13.1201 89.0822C16.5512 99.7695 22.8634 109.267 31.3196 116.553C33.351 118.303 33.8375 121.327 32.2548 123.491Z" fill="#F1F1F1"/>
  <path d="M32.2548 123.491C30.6722 125.656 27.6221 126.14 25.5715 124.412C13.5201 114.258 5.17953 100.32 1.96483 84.7967C-1.57907 67.6841 1.35911 49.8651 10.2095 34.7962C19.0598 19.7273 33.1915 8.48254 49.8633 3.24311C64.9864 -1.5096 81.2218 -1.01358 95.96 4.56621C98.4677 5.51562 99.5303 8.41538 98.4107 10.8519C97.291 13.2883 94.4132 14.3359 91.8952 13.4142C79.3545 8.8235 65.6006 8.47591 52.7745 12.5067C38.399 17.0245 26.2138 26.7205 18.5824 39.7139C10.9511 52.7073 8.41759 68.0719 11.4734 82.8276C14.1998 95.9927 21.2021 107.836 31.3194 116.553C33.3508 118.303 33.8375 121.327 32.2548 123.491Z" fill="url(#paint0_linear_533_3153)"/>
  <defs>
    <linearGradient id="paint0_linear_533_3153" x1="0.5" y1="70.5" x2="141.5" y2="70.5" gradientUnits="userSpaceOnUse">
      <stop stop-color="#52BAE6"/>
      <stop offset="0.9999" stop-color="#67F2D1"/>
      <stop offset="1" stop-color="#51C2A7"/>
    </linearGradient>
  </defs>
</svg>