<svg width="140" height="140" viewBox="0 0 140 140" fill="none" xmlns="http://www.w3.org/2000/svg">
<rect x="4.5" y="4.5" width="131" height="131" rx="65.5" fill="url(#paint0_linear_1333_4634)"/>
<rect x="4.5" y="4.5" width="131" height="131" rx="65.5" stroke="#EBF6F4" strokeWidth="9"/>
<path d="M36.2248 66V56.304H32.5928V54.16H42.3208V56.304H38.6888V66H36.2248ZM44.0255 66V53.84H46.4575V58.736H46.5375C46.6335 58.5653 46.7722 58.3733 46.9535 58.16C47.1455 57.9467 47.3962 57.76 47.7055 57.6C48.0255 57.44 48.4308 57.36 48.9215 57.36C49.5828 57.36 50.1215 57.5147 50.5375 57.824C50.9535 58.1227 51.2575 58.512 51.4495 58.992C51.6415 59.4613 51.7375 59.9573 51.7375 60.48V66H49.3055V60.896C49.3055 60.4907 49.1935 60.1333 48.9695 59.824C48.7562 59.5147 48.4095 59.36 47.9295 59.36C47.5668 59.36 47.2788 59.4453 47.0655 59.616C46.8522 59.7867 46.6975 60.0053 46.6015 60.272C46.5055 60.5387 46.4575 60.8213 46.4575 61.12V66H44.0255ZM54.8021 56.464L56.8821 53.584H58.8021L60.8821 56.464H58.9781L57.8421 54.8L56.7061 56.464H54.8021ZM57.8421 66.16C56.8928 66.16 56.0875 65.9573 55.4261 65.552C54.7648 65.136 54.2581 64.5973 53.9061 63.936C53.5648 63.264 53.3941 62.5387 53.3941 61.76C53.3941 60.9813 53.5648 60.2613 53.9061 59.6C54.2581 58.928 54.7648 58.3893 55.4261 57.984C56.0875 57.568 56.8928 57.36 57.8421 57.36C58.7915 57.36 59.5968 57.568 60.2581 57.984C60.9195 58.3893 61.4208 58.928 61.7621 59.6C62.1141 60.2613 62.2901 60.9813 62.2901 61.76C62.2901 62.5387 62.1141 63.264 61.7621 63.936C61.4208 64.5973 60.9195 65.136 60.2581 65.552C59.5968 65.9573 58.7915 66.16 57.8421 66.16ZM57.8421 64.176C58.2688 64.176 58.6315 64.064 58.9301 63.84C59.2288 63.616 59.4528 63.3227 59.6021 62.96C59.7621 62.5867 59.8421 62.1867 59.8421 61.76C59.8421 61.3227 59.7621 60.9227 59.6021 60.56C59.4528 60.1973 59.2288 59.904 58.9301 59.68C58.6315 59.456 58.2688 59.344 57.8421 59.344C57.4155 59.344 57.0528 59.456 56.7541 59.68C56.4555 59.904 56.2261 60.1973 56.0661 60.56C55.9168 60.9227 55.8421 61.3227 55.8421 61.76C55.8421 62.1867 55.9168 62.5867 56.0661 62.96C56.2261 63.3227 56.4555 63.616 56.7541 63.84C57.0528 64.064 57.4155 64.176 57.8421 64.176ZM63.9436 66V57.52H66.3756V58.736H66.4556C66.5516 58.5653 66.6903 58.3733 66.8716 58.16C67.0636 57.9467 67.3143 57.76 67.6236 57.6C67.9436 57.44 68.349 57.36 68.8396 57.36C69.501 57.36 70.0396 57.5147 70.4556 57.824C70.8716 58.1227 71.1756 58.512 71.3676 58.992C71.5596 59.4613 71.6556 59.9573 71.6556 60.48V66H69.2236V60.896C69.2236 60.4907 69.1116 60.1333 68.8876 59.824C68.6743 59.5147 68.3276 59.36 67.8476 59.36C67.485 59.36 67.197 59.4453 66.9836 59.616C66.7703 59.7867 66.6156 60.0053 66.5196 60.272C66.4236 60.5387 66.3756 60.8213 66.3756 61.12V66H63.9436ZM77.7644 69.392C76.975 69.392 76.3244 69.296 75.8124 69.104C75.311 68.912 74.911 68.6667 74.6124 68.368C74.3137 68.08 74.095 67.792 73.9564 67.504C73.8177 67.216 73.727 66.9707 73.6844 66.768C73.6524 66.576 73.6364 66.48 73.6364 66.48H76.0044C76.0044 66.48 76.0204 66.528 76.0524 66.624C76.095 66.7307 76.175 66.848 76.2924 66.976C76.4097 67.1147 76.5804 67.232 76.8044 67.328C77.039 67.4347 77.3484 67.488 77.7324 67.488C78.3937 67.488 78.879 67.3013 79.1884 66.928C79.5084 66.5547 79.6684 66.064 79.6684 65.456V64.56H79.5564C79.4497 64.7307 79.2897 64.9173 79.0764 65.12C78.863 65.3227 78.591 65.4933 78.2604 65.632C77.9297 65.7707 77.5297 65.84 77.0604 65.84C76.431 65.84 75.8817 65.7227 75.4124 65.488C74.943 65.2427 74.5484 64.9173 74.2284 64.512C73.919 64.1067 73.6844 63.6533 73.5244 63.152C73.375 62.6507 73.3004 62.1333 73.3004 61.6C73.3004 61.0773 73.375 60.5653 73.5244 60.064C73.6844 59.552 73.919 59.0933 74.2284 58.688C74.5484 58.2827 74.943 57.9627 75.4124 57.728C75.8817 57.4827 76.431 57.36 77.0604 57.36C77.5297 57.36 77.9297 57.4347 78.2604 57.584C78.591 57.7227 78.863 57.8933 79.0764 58.096C79.3004 58.288 79.4604 58.4747 79.5564 58.656H79.6684V57.52H82.1004V65.456C82.1004 66.16 81.9457 66.8107 81.6364 67.408C81.327 68.0053 80.8524 68.4853 80.2124 68.848C79.5724 69.2107 78.7564 69.392 77.7644 69.392ZM77.7324 63.92C78.1804 63.92 78.5484 63.808 78.8364 63.584C79.135 63.36 79.359 63.072 79.5084 62.72C79.6577 62.3573 79.7324 61.984 79.7324 61.6C79.7324 61.2053 79.6577 60.832 79.5084 60.48C79.359 60.128 79.135 59.84 78.8364 59.616C78.5484 59.392 78.1804 59.28 77.7324 59.28C77.295 59.28 76.927 59.392 76.6284 59.616C76.3404 59.84 76.1217 60.128 75.9724 60.48C75.823 60.832 75.7484 61.2053 75.7484 61.6C75.7484 61.984 75.823 62.3573 75.9724 62.72C76.1217 63.072 76.3404 63.36 76.6284 63.584C76.927 63.808 77.295 63.92 77.7324 63.92ZM91.5988 66.16C90.9374 66.16 90.4094 66.064 90.0148 65.872C89.6201 65.6693 89.3214 65.4187 89.1188 65.12C88.9161 64.8107 88.7828 64.4853 88.7188 64.144C88.6548 63.8027 88.6228 63.488 88.6228 63.2V59.456H87.1828V57.52H88.6228V55.424H91.0548V57.52H92.8628V59.456H91.0548V63.136C91.0548 63.488 91.1454 63.76 91.3268 63.952C91.5188 64.144 91.8334 64.24 92.2708 64.24C92.4628 64.24 92.6388 64.224 92.7988 64.192C92.9588 64.16 93.0388 64.144 93.0388 64.144V66.016C93.0388 66.016 92.8948 66.0373 92.6068 66.08C92.3188 66.1333 91.9828 66.16 91.5988 66.16ZM96.1024 56.368C95.6757 56.368 95.329 56.2347 95.0624 55.968C94.7957 55.6907 94.6624 55.3653 94.6624 54.992C94.6624 54.5973 94.7957 54.2667 95.0624 54C95.329 53.7227 95.6757 53.584 96.1024 53.584C96.5077 53.584 96.849 53.7227 97.1264 54C97.4037 54.2667 97.5424 54.5973 97.5424 54.992C97.5424 55.3653 97.4037 55.6907 97.1264 55.968C96.849 56.2347 96.5077 56.368 96.1024 56.368ZM94.8864 66V57.52H97.3184V66H94.8864ZM99.3968 66V57.52H101.829V58.736H101.909C102.005 58.5653 102.143 58.3733 102.325 58.16C102.517 57.9467 102.767 57.76 103.077 57.6C103.397 57.44 103.802 57.36 104.293 57.36C104.954 57.36 105.493 57.5147 105.909 57.824C106.325 58.1227 106.629 58.512 106.821 58.992C107.013 59.4613 107.109 59.9573 107.109 60.48V66H104.677V60.896C104.677 60.4907 104.565 60.1333 104.341 59.824C104.127 59.5147 103.781 59.36 103.301 59.36C102.938 59.36 102.65 59.4453 102.437 59.616C102.223 59.7867 102.069 60.0053 101.973 60.272C101.877 60.5387 101.829 60.8213 101.829 61.12V66H99.3968ZM38.5815 86.16C38.0375 86.16 37.5895 86.0747 37.2375 85.904C36.8855 85.7227 36.6135 85.5307 36.4215 85.328C36.2402 85.1253 36.1228 84.9867 36.0695 84.912H35.9575V86H33.5255V73.84H35.9575V78.608H36.0695C36.1228 78.5333 36.2402 78.3947 36.4215 78.192C36.6135 77.9893 36.8855 77.8027 37.2375 77.632C37.5895 77.4507 38.0375 77.36 38.5815 77.36C39.2108 77.36 39.7548 77.488 40.2135 77.744C40.6828 77.9893 41.0722 78.3253 41.3815 78.752C41.6908 79.168 41.9202 79.6373 42.0695 80.16C42.2295 80.6827 42.3095 81.216 42.3095 81.76C42.3095 82.304 42.2295 82.8373 42.0695 83.36C41.9202 83.8827 41.6908 84.3573 41.3815 84.784C41.0722 85.2 40.6828 85.536 40.2135 85.792C39.7548 86.0373 39.2108 86.16 38.5815 86.16ZM37.8775 84.192C38.3148 84.192 38.6775 84.0747 38.9655 83.84C39.2642 83.5947 39.4828 83.2853 39.6215 82.912C39.7708 82.5387 39.8455 82.1547 39.8455 81.76C39.8455 81.3653 39.7708 80.9813 39.6215 80.608C39.4828 80.2347 39.2642 79.9307 38.9655 79.696C38.6775 79.4507 38.3148 79.328 37.8775 79.328C37.4402 79.328 37.0722 79.4507 36.7735 79.696C36.4855 79.9307 36.2668 80.2347 36.1175 80.608C35.9788 80.9813 35.9095 81.3653 35.9095 81.76C35.9095 82.1547 35.9788 82.5387 36.1175 82.912C36.2668 83.2853 36.4855 83.5947 36.7735 83.84C37.0722 84.0747 37.4402 84.192 37.8775 84.192ZM47.6709 76.528V76C47.6709 75.8613 47.6975 75.7333 47.7509 75.616C47.8149 75.488 47.9215 75.392 48.0709 75.328L48.3109 75.2C48.5349 75.0827 48.7055 74.9707 48.8229 74.864C48.9402 74.7467 48.9989 74.608 48.9989 74.448C48.9989 74.3093 48.9455 74.1867 48.8389 74.08C48.7429 73.9733 48.5989 73.92 48.4069 73.92C48.2149 73.92 48.0709 73.968 47.9749 74.064C47.8895 74.16 47.8362 74.2613 47.8149 74.368C47.7935 74.4747 47.7829 74.5387 47.7829 74.56H46.3909C46.3802 74.272 46.4389 73.9893 46.5669 73.712C46.7055 73.424 46.9242 73.184 47.2229 72.992C47.5215 72.8 47.9109 72.704 48.3909 72.704C49.0309 72.704 49.5375 72.8747 49.9109 73.216C50.2842 73.5467 50.4709 73.936 50.4709 74.384C50.4709 74.768 50.3429 75.0933 50.0869 75.36C49.8415 75.616 49.5269 75.84 49.1429 76.032L49.0629 76.08V76.528H47.6709ZM47.6229 77.36C48.1669 77.36 48.6149 77.4507 48.9669 77.632C49.3189 77.8027 49.5855 77.9893 49.7669 78.192C49.9589 78.3947 50.0762 78.5333 50.1189 78.608H50.2469V77.52H52.6789V86H50.2469V84.912H50.1189C50.0762 84.9867 49.9589 85.1253 49.7669 85.328C49.5855 85.5307 49.3189 85.7227 48.9669 85.904C48.6149 86.0747 48.1669 86.16 47.6229 86.16C46.9935 86.16 46.4442 86.0373 45.9749 85.792C45.5162 85.536 45.1322 85.2 44.8229 84.784C44.5135 84.3573 44.2789 83.8827 44.1189 83.36C43.9695 82.8373 43.8949 82.304 43.8949 81.76C43.8949 81.216 43.9695 80.6827 44.1189 80.16C44.2789 79.6373 44.5135 79.168 44.8229 78.752C45.1322 78.3253 45.5162 77.9893 45.9749 77.744C46.4442 77.488 46.9935 77.36 47.6229 77.36ZM48.3269 79.328C47.8895 79.328 47.5215 79.4507 47.2229 79.696C46.9349 79.9307 46.7162 80.2347 46.5669 80.608C46.4282 80.9813 46.3589 81.3653 46.3589 81.76C46.3589 82.1547 46.4282 82.5387 46.5669 82.912C46.7162 83.2853 46.9349 83.5947 47.2229 83.84C47.5215 84.0747 47.8895 84.192 48.3269 84.192C48.7642 84.192 49.1269 84.0747 49.4149 83.84C49.7135 83.5947 49.9322 83.2853 50.0709 82.912C50.2202 82.5387 50.2949 82.1547 50.2949 81.76C50.2949 81.3653 50.2202 80.9813 50.0709 80.608C49.9322 80.2347 49.7135 79.9307 49.4149 79.696C49.1269 79.4507 48.7642 79.328 48.3269 79.328ZM59.014 86.16C58.0647 86.16 57.2593 85.9573 56.598 85.552C55.9367 85.136 55.43 84.5973 55.078 83.936C54.7367 83.264 54.566 82.5387 54.566 81.76C54.566 80.9813 54.7367 80.2613 55.078 79.6C55.43 78.928 55.9367 78.3893 56.598 77.984C57.2593 77.568 58.0647 77.36 59.014 77.36C59.9633 77.36 60.7687 77.568 61.43 77.984C62.0913 78.3893 62.5927 78.928 62.934 79.6C63.286 80.2613 63.462 80.9813 63.462 81.76C63.462 82.5387 63.286 83.264 62.934 83.936C62.5927 84.5973 62.0913 85.136 61.43 85.552C60.7687 85.9573 59.9633 86.16 59.014 86.16ZM59.014 84.176C59.4407 84.176 59.798 84.064 60.086 83.84C60.3847 83.616 60.614 83.3227 60.774 82.96C60.934 82.5867 61.014 82.1867 61.014 81.76C61.014 81.3227 60.934 80.9227 60.774 80.56C60.614 80.1973 60.3847 79.904 60.086 79.68C59.798 79.456 59.4407 79.344 59.014 79.344C58.5873 79.344 58.2247 79.456 57.926 79.68C57.6273 79.904 57.398 80.1973 57.238 80.56C57.0887 80.9227 57.014 81.3227 57.014 81.76C57.014 82.1867 57.0887 82.5867 57.238 82.96C57.398 83.3227 57.6273 83.616 57.926 83.84C58.2247 84.064 58.5873 84.176 59.014 84.176ZM69.0568 86V73.84H71.4888V78.736H71.5688C71.6648 78.5653 71.8034 78.3733 71.9848 78.16C72.1768 77.9467 72.4274 77.76 72.7368 77.6C73.0568 77.44 73.4621 77.36 73.9528 77.36C74.6141 77.36 75.1528 77.5147 75.5688 77.824C75.9848 78.1227 76.2888 78.512 76.4808 78.992C76.6728 79.4613 76.7688 79.9573 76.7688 80.48V86H74.3368V80.896C74.3368 80.4907 74.2248 80.1333 74.0008 79.824C73.7874 79.5147 73.4408 79.36 72.9608 79.36C72.5981 79.36 72.3101 79.4453 72.0968 79.616C71.8834 79.7867 71.7288 80.0053 71.6328 80.272C71.5368 80.5387 71.4888 80.8213 71.4888 81.12V86H69.0568ZM82.0574 76.352L80.3134 73.456H82.5694L83.8654 76.336L82.0574 76.352ZM82.1854 77.36C82.7294 77.36 83.1774 77.4507 83.5294 77.632C83.8814 77.8027 84.148 77.9893 84.3294 78.192C84.5214 78.3947 84.6387 78.5333 84.6814 78.608H84.8094V77.52H87.2414V86H84.8094V84.912H84.6814C84.6387 84.9867 84.5214 85.1253 84.3294 85.328C84.148 85.5307 83.8814 85.7227 83.5294 85.904C83.1774 86.0747 82.7294 86.16 82.1854 86.16C81.556 86.16 81.0067 86.0373 80.5374 85.792C80.0787 85.536 79.6947 85.2 79.3854 84.784C79.076 84.3573 78.8414 83.8827 78.6814 83.36C78.532 82.8373 78.4574 82.304 78.4574 81.76C78.4574 81.216 78.532 80.6827 78.6814 80.16C78.8414 79.6373 79.076 79.168 79.3854 78.752C79.6947 78.3253 80.0787 77.9893 80.5374 77.744C81.0067 77.488 81.556 77.36 82.1854 77.36ZM82.8894 79.328C82.452 79.328 82.084 79.4507 81.7854 79.696C81.4974 79.9307 81.2787 80.2347 81.1294 80.608C80.9907 80.9813 80.9214 81.3653 80.9214 81.76C80.9214 82.1547 80.9907 82.5387 81.1294 82.912C81.2787 83.2853 81.4974 83.5947 81.7854 83.84C82.084 84.0747 82.452 84.192 82.8894 84.192C83.3267 84.192 83.6894 84.0747 83.9774 83.84C84.276 83.5947 84.4947 83.2853 84.6334 82.912C84.7827 82.5387 84.8574 82.1547 84.8574 81.76C84.8574 81.3653 84.7827 80.9813 84.6334 80.608C84.4947 80.2347 84.276 79.9307 83.9774 79.696C83.6894 79.4507 83.3267 79.328 82.8894 79.328ZM89.1936 86V77.52H91.6256V78.736H91.7056C91.8016 78.5653 91.9403 78.3733 92.1216 78.16C92.3136 77.9467 92.5643 77.76 92.8736 77.6C93.1936 77.44 93.599 77.36 94.0896 77.36C94.751 77.36 95.2896 77.5147 95.7056 77.824C96.1216 78.1227 96.4256 78.512 96.6176 78.992C96.8096 79.4613 96.9056 79.9573 96.9056 80.48V86H94.4736V80.896C94.4736 80.4907 94.3616 80.1333 94.1376 79.824C93.9243 79.5147 93.5776 79.36 93.0976 79.36C92.735 79.36 92.447 79.4453 92.2336 79.616C92.0203 79.7867 91.8656 80.0053 91.7696 80.272C91.6736 80.5387 91.6256 80.8213 91.6256 81.12V86H89.1936ZM98.9161 86V73.84H101.348V78.736H101.428C101.524 78.5653 101.663 78.3733 101.844 78.16C102.036 77.9467 102.287 77.76 102.596 77.6C102.916 77.44 103.321 77.36 103.812 77.36C104.473 77.36 105.012 77.5147 105.428 77.824C105.844 78.1227 106.148 78.512 106.34 78.992C106.532 79.4613 106.628 79.9573 106.628 80.48V86H104.196V80.896C104.196 80.4907 104.084 80.1333 103.86 79.824C103.647 79.5147 103.3 79.36 102.82 79.36C102.457 79.36 102.169 79.4453 101.956 79.616C101.743 79.7867 101.588 80.0053 101.492 80.272C101.396 80.5387 101.348 80.8213 101.348 81.12V86H98.9161Z" fill="white"/>
<defs>
<linearGradient id="paint0_linear_1333_4634" x1="70" y1="0" x2="70" y2="140" gradientUnits="userSpaceOnUse">
<stop stop-color="#258BDA"/>
<stop offset="0.5" stop-color="#26D3E0"/>
<stop offset="1" stop-color="#8BF6C8"/>
</linearGradient>
</defs>
</svg>
