<svg width="25" height="24" viewBox="0 0 25 24" fill="none" xmlns="http://www.w3.org/2000/svg">
<g clip-path="url(#clip0_1333_4943)">
<path d="M23.4531 7.875V6C23.4531 5.70163 23.3346 5.41548 23.1236 5.2045C22.9126 4.99353 22.6265 4.875 22.3281 4.875H2.07812C1.77976 4.875 1.49361 4.99353 1.28263 5.2045C1.07165 5.41548 0.953125 5.70163 0.953125 6V7.875H23.4531Z" fill="url(#paint0_linear_1333_4943)"/>
<path d="M0.953125 9.375V18C0.953125 18.2984 1.07165 18.5845 1.28263 18.7955C1.49361 19.0065 1.77976 19.125 2.07812 19.125H22.3281C22.6265 19.125 22.9126 19.0065 23.1236 18.7955C23.3346 18.5845 23.4531 18.2984 23.4531 18V9.375H0.953125ZM6.95312 15.375H3.95312C3.75421 15.375 3.56345 15.296 3.4228 15.1553C3.28214 15.0147 3.20312 14.8239 3.20312 14.625C3.20312 14.4261 3.28214 14.2353 3.4228 14.0947C3.56345 13.954 3.75421 13.875 3.95312 13.875H6.95312C7.15204 13.875 7.3428 13.954 7.48345 14.0947C7.62411 14.2353 7.70312 14.4261 7.70312 14.625C7.70312 14.8239 7.62411 15.0147 7.48345 15.1553C7.3428 15.296 7.15204 15.375 6.95312 15.375ZM11.4531 12.375H3.95312C3.75421 12.375 3.56345 12.296 3.4228 12.1553C3.28214 12.0147 3.20312 11.8239 3.20312 11.625C3.20312 11.4261 3.28214 11.2353 3.4228 11.0947C3.56345 10.954 3.75421 10.875 3.95312 10.875H11.4531C11.652 10.875 11.8428 10.954 11.9835 11.0947C12.1241 11.2353 12.2031 11.4261 12.2031 11.625C12.2031 11.8239 12.1241 12.0147 11.9835 12.1553C11.8428 12.296 11.652 12.375 11.4531 12.375ZM20.4531 12.375H18.2031C18.0042 12.375 17.8134 12.296 17.6728 12.1553C17.5321 12.0147 17.4531 11.8239 17.4531 11.625C17.4531 11.4261 17.5321 11.2353 17.6728 11.0947C17.8134 10.954 18.0042 10.875 18.2031 10.875H20.4531C20.652 10.875 20.8428 10.954 20.9835 11.0947C21.1241 11.2353 21.2031 11.4261 21.2031 11.625C21.2031 11.8239 21.1241 12.0147 20.9835 12.1553C20.8428 12.296 20.652 12.375 20.4531 12.375Z" fill="url(#paint1_linear_1333_4943)"/>
</g>
<defs>
<linearGradient id="paint0_linear_1333_4943" x1="0.953125" y1="6.375" x2="23.4531" y2="6.375" gradientUnits="userSpaceOnUse">
<stop stop-color="#52BAE6"/>
<stop offset="0.9999" stop-color="#67F2D1"/>
<stop offset="1" stop-color="#51C2A7"/>
</linearGradient>
<linearGradient id="paint1_linear_1333_4943" x1="0.953125" y1="14.25" x2="23.4531" y2="14.25" gradientUnits="userSpaceOnUse">
<stop stop-color="#52BAE6"/>
<stop offset="0.9999" stop-color="#67F2D1"/>
<stop offset="1" stop-color="#51C2A7"/>
</linearGradient>
<clipPath id="clip0_1333_4943">
<rect width="24" height="24" fill="white" transform="translate(0.203125)"/>
</clipPath>
</defs>
</svg>
