<svg width="25" height="24" viewBox="0 0 25 24" fill="none" xmlns="http://www.w3.org/2000/svg">
<g clip-path="url(#clip0_1333_4874)">
<path d="M23.4531 9.75L21.7281 8.025V5.625L19.4781 4.6875L18.5781 2.475H16.1406L14.4531 0.75L12.2031 1.6875L9.95312 0.75L8.26562 2.475H5.82812L4.89062 4.725L2.67812 5.625V8.0625L0.953125 9.75L1.89062 12L0.953125 14.25L2.67812 15.975V18.375L4.92813 19.3125L5.86563 21.5625H8.30313L9.95312 23.25L12.2031 22.3125L14.4531 23.25L16.1781 21.525H18.5781L19.5156 19.275L21.7656 18.3375V15.9375L23.4531 14.25L22.5156 12L23.4531 9.75ZM12.9531 18.1875V19.5C12.9531 19.6989 12.8741 19.8897 12.7335 20.0303C12.5928 20.171 12.402 20.25 12.2031 20.25C12.0042 20.25 11.8134 20.171 11.6728 20.0303C11.5321 19.8897 11.4531 19.6989 11.4531 19.5V18.1875C10.6061 18.0146 9.84483 17.5544 9.29815 16.8847C8.75146 16.215 8.45295 15.377 8.45312 14.5125C8.45312 14.3136 8.53214 14.1228 8.6728 13.9822C8.81345 13.8415 9.00421 13.7625 9.20312 13.7625C9.40204 13.7625 9.5928 13.8415 9.73345 13.9822C9.87411 14.1228 9.95312 14.3136 9.95312 14.5125C9.95312 15.1092 10.1902 15.6815 10.6121 16.1035C11.0341 16.5254 11.6064 16.7625 12.2031 16.7625C13.5156 16.7625 14.4531 15.9375 14.4531 14.775C14.4531 13.6125 13.6281 13.125 12.0531 12.75C9.09062 12.075 8.45312 10.5 8.45312 9.2625C8.45391 8.42258 8.7578 7.61115 9.30894 6.97734C9.86008 6.34352 10.6214 5.92991 11.4531 5.8125V4.5C11.4531 4.30109 11.5321 4.11032 11.6728 3.96967C11.8134 3.82902 12.0042 3.75 12.2031 3.75C12.402 3.75 12.5928 3.82902 12.7335 3.96967C12.8741 4.11032 12.9531 4.30109 12.9531 4.5V5.8125C13.6959 5.96042 14.3765 6.32979 14.9053 6.87198C15.4341 7.41416 15.7863 8.10376 15.9156 8.85C15.9488 8.9519 15.9598 9.05972 15.9478 9.16622C15.9358 9.27271 15.9012 9.3754 15.8461 9.46737C15.7911 9.55934 15.717 9.63844 15.6289 9.69936C15.5407 9.76029 15.4405 9.8016 15.335 9.82054C15.2295 9.83947 15.1212 9.83558 15.0174 9.80912C14.9135 9.78266 14.8165 9.73426 14.733 9.66717C14.6494 9.60007 14.5812 9.51585 14.5329 9.42017C14.4846 9.32449 14.4574 9.21958 14.4531 9.1125C14.3647 8.58924 14.0941 8.11408 13.6893 7.77098C13.2844 7.42788 12.7713 7.23892 12.2406 7.2375C10.9281 7.2375 9.99063 8.0625 9.99063 9.225C9.99063 9.6 9.99063 10.6875 12.3906 11.25C15.5031 11.9625 15.9906 13.725 15.9906 14.7375C15.9886 15.5831 15.6794 16.3991 15.1207 17.0337C14.5619 17.6684 13.7916 18.0784 12.9531 18.1875Z" fill="url(#paint0_linear_1333_4874)"/>
</g>
<defs>
<linearGradient id="paint0_linear_1333_4874" x1="0.953125" y1="12" x2="23.4531" y2="12" gradientUnits="userSpaceOnUse">
<stop stop-color="#52BAE6"/>
<stop offset="0.9999" stop-color="#67F2D1"/>
<stop offset="1" stop-color="#51C2A7"/>
</linearGradient>
<clipPath id="clip0_1333_4874">
<rect width="24" height="24" fill="white" transform="translate(0.203125)"/>
</clipPath>
</defs>
</svg>
