<svg xmlns="http://www.w3.org/2000/svg" width="21" height="20" viewBox="0 0 21 20" fill="none">
  <path d="M14.667 2.49988C14.8792 2.24907 15.1418 2.04493 15.4378 1.90045C15.7339 1.75597 16.0571 1.67433 16.3867 1.66072C16.7163 1.64712 17.0452 1.70186 17.3523 1.82145C17.6594 1.94104 17.9381 2.12286 18.1706 2.35531C18.403 2.58777 18.5842 2.86576 18.7024 3.17158C18.8207 3.4774 18.8735 3.80433 18.8575 4.13153C18.8415 4.45873 18.757 4.77903 18.6094 5.07202C18.4618 5.365 18.2544 5.62424 18.0003 5.83321L6.75033 17.0832L2.16699 18.3332L3.41699 13.7499L14.667 2.49988Z" stroke="white" strokeWidth="2" strokeLinecap="round" strokeLinejoin="round"/>
  <path d="M13 4.16675L16.3333 7.50008" stroke="white" strokeWidth="2" strokeLinecap="round" strokeLinejoin="round"/>
</svg>
