<svg width="64" height="65" viewBox="0 0 64 65" fill="none" xmlns="http://www.w3.org/2000/svg">
<path d="M20 58.5C22.2091 58.5 24 56.7091 24 54.5C24 52.2909 22.2091 50.5 20 50.5C17.7909 50.5 16 52.2909 16 54.5C16 56.7091 17.7909 58.5 20 58.5Z" fill="#A6B1C9"/>
<path d="M46 58.5C48.2091 58.5 50 56.7091 50 54.5C50 52.2909 48.2091 50.5 46 50.5C43.7909 50.5 42 52.2909 42 54.5C42 56.7091 43.7909 58.5 46 58.5Z" fill="#A6B1C9"/>
<path d="M46 38.5C54.8366 38.5 62 31.3366 62 22.5C62 13.6634 54.8366 6.5 46 6.5C37.1634 6.5 30 13.6634 30 22.5C30 31.3366 37.1634 38.5 46 38.5Z" fill="url(#paint0_linear_604_9086)"/>
<path d="M30 22.5H12L18 46.5H50L53.2 36.8C50.7598 38.0296 48.0453 38.6138 45.3153 38.4969C42.5853 38.38 39.9307 37.5658 37.6046 36.132C35.2785 34.6982 33.3583 32.6926 32.0271 30.3063C30.6959 27.92 29.998 25.2325 30 22.5Z" fill="url(#paint1_linear_604_9086)"/>
<path opacity="0.15" d="M53.2002 36.8C50.76 38.0296 48.0455 38.6138 45.3155 38.4969C42.5855 38.38 39.931 37.5658 37.6048 36.132C35.2787 34.6982 33.3585 32.6926 32.0273 30.3063C30.6961 27.92 29.9982 25.2325 30.0002 22.5H26.5002C25.637 25.8299 25.87 29.3494 27.1646 32.5365C28.4592 35.7235 30.7465 38.4085 33.6874 40.1932C36.6282 41.9779 40.0659 42.7673 43.4907 42.4443C46.9154 42.1212 50.1449 40.7031 52.7002 38.4L53.2002 36.8Z" fill="#333333"/>
<path d="M30 22.5H12M2 6.5H8L18 46.5H50L53.2 36.8" stroke="#2E4369" strokeWidth="2" strokeLinecap="round" strokeLinejoin="round"/>
<path d="M20 58.5C22.2091 58.5 24 56.7091 24 54.5C24 52.2909 22.2091 50.5 20 50.5C17.7909 50.5 16 52.2909 16 54.5C16 56.7091 17.7909 58.5 20 58.5Z" stroke="#2E4369" strokeWidth="2" strokeLinecap="round" strokeLinejoin="round"/>
<path d="M46 58.5C48.2091 58.5 50 56.7091 50 54.5C50 52.2909 48.2091 50.5 46 50.5C43.7909 50.5 42 52.2909 42 54.5C42 56.7091 43.7909 58.5 46 58.5Z" stroke="#2E4369" strokeWidth="2" strokeLinecap="round" strokeLinejoin="round"/>
<path d="M46 38.5C54.8366 38.5 62 31.3366 62 22.5C62 13.6634 54.8366 6.5 46 6.5C37.1634 6.5 30 13.6634 30 22.5C30 31.3366 37.1634 38.5 46 38.5Z" stroke="#2E4369" strokeWidth="2" strokeLinecap="round" strokeLinejoin="round"/>
<defs>
<linearGradient id="paint0_linear_604_9086" x1="30" y1="22.5" x2="62" y2="22.5" gradientUnits="userSpaceOnUse">
<stop stop-color="#52BAE6"/>
<stop offset="0.9999" stop-color="#67F2D1"/>
<stop offset="1" stop-color="#51C2A7"/>
</linearGradient>
<linearGradient id="paint1_linear_604_9086" x1="12" y1="34.5" x2="53.2" y2="34.5" gradientUnits="userSpaceOnUse">
<stop stop-color="#52BAE6"/>
<stop offset="0.9999" stop-color="#67F2D1"/>
<stop offset="1" stop-color="#51C2A7"/>
</linearGradient>
</defs>
</svg>
