<svg width="25" height="26" viewBox="0 0 25 26" fill="none" xmlns="http://www.w3.org/2000/svg">
<path fill-rule="evenodd" clip-rule="evenodd" d="M22.707 8.17171L13.3575 3.34761C12.7622 3.0407 12.0557 3.0407 11.4604 3.34761L2.10987 8.17171C1.53724 8.4673 0.83381 8.24278 0.538225 7.67015C0.242641 7.09752 0.468191 6.39306 1.04082 6.0985L11.4594 0.722372C12.0547 0.415459 12.7612 0.415459 13.3565 0.722372L23.7761 6.0985C24.3487 6.39409 24.5732 7.09752 24.2777 7.67015C23.9831 8.24175 23.2797 8.4673 22.707 8.17171Z" fill="#666666"/>
<path fill-rule="evenodd" clip-rule="evenodd" d="M22.2463 8.6845C22.3322 8.72887 22.3863 8.81752 22.3863 8.91427C22.3863 9.05706 22.2705 9.17282 22.1277 9.17282H2.68824C2.54545 9.17282 2.42969 9.05706 2.42969 8.91427C2.42969 8.81752 2.4837 8.72886 2.56968 8.6845L11.7648 3.93984C12.1675 3.7318 12.6474 3.7318 13.0501 3.93984L22.2463 8.6845ZM13.9503 6.46416C13.9503 5.61242 13.2602 4.92238 12.4085 4.92238C11.5568 4.92238 10.8667 5.61242 10.8667 6.46416C10.8667 7.31589 11.5568 8.00593 12.4085 8.00593C13.2602 8.00593 13.9503 7.31589 13.9503 6.46416ZM20.3863 9.8402C21.4908 9.8402 22.3863 10.7356 22.3863 11.8402V24.2929C22.3863 24.9641 21.8422 25.5082 21.171 25.5082C20.4998 25.5082 19.9557 24.9641 19.9557 24.2929V13.6807C19.9557 12.5761 19.0602 11.6807 17.9557 11.6807H6.86028C5.75571 11.6807 4.86028 12.5761 4.86028 13.6807V24.2929C4.86028 24.9641 4.31617 25.5082 3.64498 25.5082C2.97379 25.5082 2.42969 24.9641 2.42969 24.2929V11.8402C2.42969 10.7356 3.32512 9.8402 4.42969 9.8402H20.3863Z" fill="#666666"/>
<path fill-rule="evenodd" clip-rule="evenodd" d="M7.70312 14.8065V14.3502C7.70312 13.8229 8.13466 13.3914 8.66197 13.3914H16.1577C16.685 13.3914 17.1165 13.8229 17.1165 14.3502V14.8065H12.4098H7.70312Z" fill="#666666"/>
<path d="M17.1152 15.4738H12.7422V18.2566H17.1152V15.4738Z" fill="#666666"/>
<path d="M12.0761 15.4738H7.70312V18.2566H12.0761V15.4738Z" fill="#666666"/>
<path fill-rule="evenodd" clip-rule="evenodd" d="M16.1577 22.8789H8.66197C8.13466 22.8789 7.70312 22.4473 7.70312 21.92V18.923H12.4098H17.1165V21.92C17.1155 22.4484 16.685 22.8789 16.1577 22.8789ZM11.7867 19.8808C11.6024 19.8808 11.453 20.0301 11.453 20.2145C11.453 20.3988 11.6024 20.5482 11.7867 20.5482H13.0329C13.2173 20.5482 13.3666 20.3988 13.3666 20.2145C13.3666 20.0301 13.2173 19.8808 13.0329 19.8808H11.7867ZM11.7867 21.2547C11.6024 21.2547 11.453 21.404 11.453 21.5884C11.453 21.7727 11.6024 21.9221 11.7867 21.9221H13.0329C13.2173 21.9221 13.3666 21.7727 13.3666 21.5884C13.3666 21.404 13.2173 21.2547 13.0329 21.2547H11.7867ZM9.49929 21.7758C10.6281 21.7758 10.6281 20.027 9.49929 20.027C8.37051 20.027 8.37051 21.7758 9.49929 21.7758ZM15.3203 21.7758C16.4491 21.7758 16.4491 20.027 15.3203 20.027C14.1916 20.027 14.1916 21.7758 15.3203 21.7758Z" fill="#666666"/>
<path d="M7.03491 15.6478H5.58789V18.0836H7.03491V15.6478Z" fill="#666666"/>
<path d="M19.2283 15.6478H17.7812V18.0836H19.2283V15.6478Z" fill="#666666"/>
<path fill-rule="evenodd" clip-rule="evenodd" d="M10.2184 24.882V23.5462H8.66017C8.60249 23.5462 8.54482 23.5411 8.49023 23.5308V24.882C8.49023 25.0911 8.66017 25.261 8.86924 25.261H9.84148C10.0495 25.261 10.2184 25.0911 10.2184 24.882Z" fill="#666666"/>
<path fill-rule="evenodd" clip-rule="evenodd" d="M16.2146 23.5442C16.1951 23.5452 16.1755 23.5462 16.1559 23.5462H14.4844V24.882C14.4844 25.0911 14.6543 25.261 14.8634 25.261H15.8356C16.0447 25.261 16.2146 25.0911 16.2146 24.882V23.5442Z" fill="#666666"/>
</svg>
