<svg width="31" height="31" viewBox="0 0 31 31" fill="none" xmlns="http://www.w3.org/2000/svg">
<path id="Vector" d="M15.1 0.449951C6.7 0.449951 0 7.14995 0 15.45C0 23.85 6.7 30.55 15.1 30.55C23.4 30.55 30.2 23.85 30.2 15.45C30.1 7.14995 23.4 0.449951 15.1 0.449951ZM25.7 15.45C25.7 16.85 25.4 18.25 24.9 19.55L20.3 16.95C20.4 16.55 20.5 16.05 20.5 15.55C20.5 15.05 20.4 14.55 20.3 14.05L24.9 11.35C25.4 12.65 25.7 14.05 25.7 15.45ZM23.5 9.04995L18.9 11.75C18.2 11.15 17.4 10.65 16.5 10.35V4.94995C19.3 5.34995 21.8 6.84995 23.5 9.04995ZM17.9 14.55C17.7 14.65 17.4 14.65 17.2 14.35C17.1 14.15 17.1 13.8499 17.4 13.65C17.6 13.5499 17.9 13.55 18.1 13.85C18.2 14.05 18.1 14.35 17.9 14.55ZM18 17.25C17.9 17.45 17.6 17.55 17.3 17.45C17.1 17.35 17 17.0499 17.1 16.75C17.2 16.5499 17.5 16.45 17.8 16.55C18.1 16.75 18.2 17.0499 18 17.25ZM15.1 17.95C15.4 17.95 15.6 18.15 15.6 18.45C15.6 18.75 15.4 18.9499 15.1 18.9499C14.8 18.9499 14.6 18.75 14.6 18.45C14.6 18.15 14.8 17.95 15.1 17.95ZM14.6 12.65C14.6 12.3499 14.8 12.15 15.1 12.15C15.4 12.15 15.6 12.3499 15.6 12.65C15.6 12.95 15.4 13.15 15.1 13.15C14.8 13.15 14.6 12.95 14.6 12.65ZM13.7 4.94995V10.35C12.8 10.55 12 11.05 11.3 11.75L6.6 9.04995C8.3 6.84995 10.8 5.34995 13.7 4.94995ZM13 14.35C12.9 14.55 12.6 14.65 12.3 14.55C12.1 14.45 12 14.15 12.1 13.85C12.2 13.65 12.5 13.5499 12.8 13.65C13 13.8499 13.1 14.15 13 14.35ZM12.8 17.45C12.6 17.55 12.3 17.5499 12.1 17.25C12 17.0499 12 16.75 12.3 16.55C12.5 16.45 12.8 16.45 13 16.75C13.1 16.95 13 17.25 12.8 17.45ZM4.4 15.45C4.4 14.05 4.7 12.65 5.2 11.35L9.9 14.05C9.8 14.55 9.7 15.05 9.7 15.55C9.7 16.05 9.8 16.45 9.9 16.85L5.3 19.55C4.7 18.35 4.4 16.95 4.4 15.45ZM6.6 21.9499L11.2 19.25C11.9 19.95 12.7 20.45 13.7 20.75V26.05C10.8 25.65 8.3 24.15 6.6 21.9499ZM16.4 26.05V20.75C17.4 20.55 18.2 19.95 18.9 19.35L23.5 21.9499C21.8 24.15 19.3 25.65 16.4 26.05Z" fill="url(#paint0_linear_1333_5539)"/>
<defs>
<linearGradient id="paint0_linear_1333_5539" x1="0" y1="15.5" x2="30.2" y2="15.5" gradientUnits="userSpaceOnUse">
<stop stop-color="#52BAE6"/>
<stop offset="0.505" stop-color="#67F2D1"/>
<stop offset="1" stop-color="#51C2A7"/>
</linearGradient>
</defs>
</svg>
