<svg width="42" height="26" viewBox="0 0 42 26" fill="none" xmlns="http://www.w3.org/2000/svg">
<rect width="42" height="26" fill="white"/>
<g clip-path="url(#clip0_3305_1563)">
<path d="M11.4537 23.8861V22.3638C11.4537 21.7801 11.0934 21.3996 10.476 21.3996C10.1673 21.3996 9.83285 21.5011 9.60129 21.831C9.42129 21.5518 9.16406 21.3996 8.77816 21.3996C8.52082 21.3996 8.26371 21.4757 8.05781 21.7548V21.4504H7.51758V23.8861H8.05781V22.5413C8.05781 22.1101 8.28938 21.907 8.64961 21.907C9.00961 21.907 9.18984 22.1354 9.18984 22.5413V23.8861H9.73008V22.5413C9.73008 22.1101 9.98719 21.907 10.3216 21.907C10.6819 21.907 10.8619 22.1354 10.8619 22.5413V23.8861H11.4537ZM19.4542 21.4504H18.5796V20.7146H18.0394V21.4504H17.5506V21.9323H18.0393V23.0488C18.0393 23.607 18.2708 23.9368 18.8883 23.9368C19.1198 23.9368 19.377 23.8607 19.5572 23.7593L19.4027 23.3025C19.2484 23.404 19.0684 23.4294 18.9397 23.4294C18.6825 23.4294 18.5796 23.2772 18.5796 23.0234V21.9323H19.4542V21.4504ZM24.0334 21.3995C23.7247 21.3995 23.5189 21.5518 23.3903 21.7548V21.4504H22.85V23.8861H23.3903V22.516C23.3903 22.1101 23.5703 21.8817 23.9047 21.8817C24.0076 21.8817 24.1363 21.9071 24.2392 21.9324L24.3935 21.4251C24.2906 21.3996 24.1363 21.3996 24.0334 21.3996M17.1132 21.6534C16.8559 21.4758 16.4958 21.3997 16.1099 21.3997C15.4925 21.3997 15.081 21.7042 15.081 22.1862C15.081 22.5923 15.3896 22.8205 15.9299 22.8967L16.1871 22.9221C16.4701 22.9728 16.6245 23.0489 16.6245 23.1758C16.6245 23.3534 16.4187 23.4803 16.0584 23.4803C15.6982 23.4803 15.4153 23.3534 15.2352 23.2266L14.978 23.6325C15.261 23.8354 15.6469 23.9369 16.0327 23.9369C16.753 23.9369 17.1647 23.6072 17.1647 23.1504C17.1647 22.7191 16.8302 22.4907 16.3157 22.4146L16.0584 22.3892C15.8269 22.3638 15.6469 22.3132 15.6469 22.1609C15.6469 21.9833 15.8269 21.8818 16.1099 21.8818C16.4187 21.8818 16.7273 22.0086 16.8817 22.0848L17.1132 21.6534ZM31.4681 21.3997C31.1593 21.3997 30.9536 21.552 30.8249 21.7549V21.4505H30.2846V23.8862H30.8249V22.5161C30.8249 22.1102 31.005 21.8818 31.3393 21.8818C31.4423 21.8818 31.571 21.9072 31.6739 21.9326L31.8282 21.4252C31.7254 21.3997 31.571 21.3997 31.4681 21.3997ZM24.5736 22.6683C24.5736 23.4041 25.0881 23.9369 25.8857 23.9369C26.2458 23.9369 26.503 23.8609 26.7602 23.6579L26.503 23.2266C26.2972 23.3788 26.0914 23.4548 25.8599 23.4548C25.4225 23.4548 25.1139 23.1504 25.1139 22.6683C25.1139 22.2117 25.4225 21.9071 25.8599 21.8818C26.0914 21.8818 26.2972 21.9579 26.503 22.1102L26.7602 21.6789C26.503 21.4758 26.2458 21.3997 25.8857 21.3997C25.0881 21.3997 24.5736 21.9326 24.5736 22.6683ZM29.5644 22.6683V21.4505H29.0242V21.7549C28.8441 21.5266 28.5868 21.3997 28.2524 21.3997C27.5578 21.3997 27.0176 21.9326 27.0176 22.6683C27.0176 23.4041 27.5578 23.9369 28.2524 23.9369C28.6125 23.9369 28.8698 23.8101 29.0242 23.5817V23.8862H29.5644V22.6683ZM27.5835 22.6683C27.5835 22.237 27.8665 21.8818 28.3295 21.8818C28.7668 21.8818 29.0756 22.2117 29.0756 22.6683C29.0756 23.0997 28.7668 23.4548 28.3295 23.4548C27.8665 23.4294 27.5835 23.0997 27.5835 22.6683ZM21.1264 21.3997C20.4061 21.3997 19.8915 21.9071 19.8915 22.6683C19.8915 23.4295 20.406 23.9369 21.1521 23.9369C21.5122 23.9369 21.8725 23.8354 22.1555 23.6072L21.8981 23.2266C21.6923 23.3788 21.4351 23.4803 21.1779 23.4803C20.8434 23.4803 20.509 23.328 20.4318 22.8966H22.2584V22.6938C22.2841 21.9071 21.8211 21.3997 21.1264 21.3997ZM21.1263 21.8564C21.4607 21.8564 21.6923 22.0595 21.7437 22.4401H20.4574C20.5089 22.1102 20.7404 21.8564 21.1263 21.8564ZM34.5293 22.6683V20.4863H33.9891V21.7549C33.8089 21.5266 33.5517 21.3997 33.2173 21.3997C32.5227 21.3997 31.9825 21.9326 31.9825 22.6683C31.9825 23.4041 32.5227 23.9369 33.2173 23.9369C33.5775 23.9369 33.8347 23.8101 33.9891 23.5817V23.8862H34.5293V22.6683ZM32.5485 22.6683C32.5485 22.237 32.8314 21.8818 33.2945 21.8818C33.7318 21.8818 34.0405 22.2117 34.0405 22.6683C34.0405 23.0997 33.7318 23.4548 33.2945 23.4548C32.8314 23.4294 32.5485 23.0997 32.5485 22.6683ZM14.4891 22.6683V21.4505H13.9488V21.7549C13.7687 21.5266 13.5115 21.3997 13.177 21.3997C12.4825 21.3997 11.9422 21.9326 11.9422 22.6683C11.9422 23.4041 12.4825 23.9369 13.177 23.9369C13.5373 23.9369 13.7945 23.8101 13.9488 23.5817V23.8862H14.4891V22.6683ZM12.4825 22.6683C12.4825 22.237 12.7655 21.8818 13.2285 21.8818C13.6658 21.8818 13.9746 22.2117 13.9746 22.6683C13.9746 23.0997 13.6658 23.4548 13.2285 23.4548C12.7655 23.4294 12.4825 23.0997 12.4825 22.6683Z" fill="black"/>
<path d="M16.9336 2.95312H25.0371V17.3138H16.9336V2.95312Z" fill="#FF5F00"/>
<path d="M17.4479 10.134C17.4479 7.21624 18.8371 4.62822 20.9722 2.95361C19.4031 1.73577 17.4223 1 15.2613 1C10.1418 1 6 5.08487 6 10.134C6 15.1831 10.1418 19.268 15.2612 19.268C17.4221 19.268 19.403 18.5322 20.9722 17.3143C18.8371 15.6651 17.4479 13.0518 17.4479 10.134Z" fill="#EB001B"/>
<path d="M35.9703 10.134C35.9703 15.183 31.8285 19.268 26.7091 19.268C24.5481 19.268 22.5673 18.5322 20.998 17.3143C23.159 15.6398 24.5225 13.0518 24.5225 10.134C24.5225 7.21624 23.1332 4.62822 20.998 2.95361C22.5672 1.73577 24.5481 1 26.7091 1C31.8285 1 35.9703 5.1103 35.9703 10.134Z" fill="#F79E1B"/>
</g>
<defs>
<clipPath id="clip0_3305_1563">
<rect width="30" height="23" fill="white" transform="translate(6 1)"/>
</clipPath>
</defs>
</svg>
