<svg width="20" height="21" viewBox="0 0 20 21" fill="none" xmlns="http://www.w3.org/2000/svg">
<path fill-rule="evenodd" clip-rule="evenodd" d="M19.21 6.39924V14.5502C19.21 17.5702 17.32 19.7002 14.3 19.7002H5.65C2.63 19.7002 0.75 17.5702 0.75 14.5502V6.39924C0.75 3.37924 2.64 1.25024 5.65 1.25024H14.3C17.32 1.25024 19.21 3.37924 19.21 6.39924Z" stroke="#333333" strokeWidth="1.5" strokeLinecap="round" strokeLinejoin="round"/>
<path d="M3.28125 14.9311L4.80925 13.3181C5.34025 12.7551 6.22525 12.7281 6.78925 13.2581C6.80625 13.2751 7.72625 14.2101 7.72625 14.2101C8.28125 14.7751 9.18825 14.7841 9.75325 14.2301C9.79025 14.1941 12.0872 11.4081 12.0872 11.4081C12.6792 10.6891 13.7422 10.5861 14.4622 11.1791C14.5102 11.2191 16.6803 13.4461 16.6803 13.4461" stroke="#333333" strokeWidth="1.5" strokeLinecap="round" strokeLinejoin="round"/>
<path fill-rule="evenodd" clip-rule="evenodd" d="M8.31257 7.63315C8.31257 8.60215 7.52757 9.38715 6.55857 9.38715C5.58957 9.38715 4.80457 8.60215 4.80457 7.63315C4.80457 6.66415 5.58957 5.87915 6.55857 5.87915C7.52757 5.88015 8.31257 6.66415 8.31257 7.63315Z" stroke="#333333" strokeWidth="1.5" strokeLinecap="round" strokeLinejoin="round"/>
</svg>
