<svg xmlns="http://www.w3.org/2000/svg" width="70" height="70" viewBox="0 0 70 70" fill="none">
  <path fill-rule="evenodd" clip-rule="evenodd" d="M19.0448 0.83374H50.9223C62.539 0.83374 69.1673 7.39374 69.1673 19.0446V50.9562C69.1673 62.5387 62.5732 69.1671 50.9565 69.1671H19.0448C7.39398 69.1671 0.833984 62.5387 0.833984 50.9562V19.0446C0.833984 7.39374 7.39398 0.83374 19.0448 0.83374ZM37.8023 37.8362H47.5056C49.0773 37.8021 50.3415 36.5379 50.3415 34.9662C50.3415 33.3946 49.0773 32.1304 47.5056 32.1304H37.8023V22.4954C37.8023 20.9237 36.5381 19.6596 34.9665 19.6596C33.3948 19.6596 32.1306 20.9237 32.1306 22.4954V32.1304H22.4615C21.7098 32.1304 20.9923 32.4379 20.4457 32.9504C19.9332 33.4971 19.6257 34.2112 19.6257 34.9662C19.6257 36.5379 20.8898 37.8021 22.4615 37.8362H32.1306V47.5054C32.1306 49.0771 33.3948 50.3412 34.9665 50.3412C36.5381 50.3412 37.8023 49.0771 37.8023 47.5054V37.8362Z" fill="white"/>
</svg>