<svg xmlns="http://www.w3.org/2000/svg" width="25" height="24" viewBox="0 0 25 24" fill="none">
  <path d="M8.5 22C9.05228 22 9.5 21.5523 9.5 21C9.5 20.4477 9.05228 20 8.5 20C7.94772 20 7.5 20.4477 7.5 21C7.5 21.5523 7.94772 22 8.5 22Z" stroke="url(#paint0_linear_533_5877)" strokeWidth="2" strokeLinecap="round" strokeLinejoin="round"/>
  <path d="M19.5 22C20.0523 22 20.5 21.5523 20.5 21C20.5 20.4477 20.0523 20 19.5 20C18.9477 20 18.5 20.4477 18.5 21C18.5 21.5523 18.9477 22 19.5 22Z" stroke="url(#paint1_linear_533_5877)" strokeWidth="2" strokeLinecap="round" strokeLinejoin="round"/>
  <path d="M2.55078 2.0498H4.55078L7.21078 14.4698C7.30836 14.9247 7.56145 15.3313 7.92649 15.6197C8.29153 15.908 8.74569 16.0602 9.21078 16.0498H18.9908C19.446 16.0491 19.8873 15.8931 20.2418 15.6076C20.5964 15.3222 20.8429 14.9243 20.9408 14.4798L22.5908 7.0498H5.62078" stroke="url(#paint2_linear_533_5877)" strokeWidth="2" strokeLinecap="round" strokeLinejoin="round"/>
  <defs>
    <linearGradient id="paint0_linear_533_5877" x1="7.5" y1="21" x2="9.5" y2="21" gradientUnits="userSpaceOnUse">
      <stop stop-color="#52BAE6"/>
      <stop offset="0.9999" stop-color="#67F2D1"/>
      <stop offset="1" stop-color="#51C2A7"/>
    </linearGradient>
    <linearGradient id="paint1_linear_533_5877" x1="18.5" y1="21" x2="20.5" y2="21" gradientUnits="userSpaceOnUse">
      <stop stop-color="#52BAE6"/>
      <stop offset="0.9999" stop-color="#67F2D1"/>
      <stop offset="1" stop-color="#51C2A7"/>
    </linearGradient>
    <linearGradient id="paint2_linear_533_5877" x1="2.55078" y1="9.05005" x2="22.5908" y2="9.05005" gradientUnits="userSpaceOnUse">
      <stop stop-color="#52BAE6"/>
      <stop offset="0.9999" stop-color="#67F2D1"/>
      <stop offset="1" stop-color="#51C2A7"/>
    </linearGradient>
  </defs>
</svg>
