<svg width="20" height="20" viewBox="0 0 20 20" fill="none" xmlns="http://www.w3.org/2000/svg">
<g clip-path="url(#clip0_1544_3972)">
<path d="M1.66699 5.83268L5.34199 2.15768C5.49704 2.00171 5.68142 1.87796 5.88452 1.79358C6.08761 1.7092 6.3054 1.66584 6.52533 1.66602H13.4753C13.6953 1.66584 13.913 1.7092 14.1161 1.79358C14.3192 1.87796 14.5036 2.00171 14.6587 2.15768L18.3337 5.83268" stroke="#999999" strokeWidth="2" strokeLinecap="round" strokeLinejoin="round"/>
<path d="M3.33301 10V16.6667C3.33301 17.1087 3.5086 17.5326 3.82116 17.8452C4.13372 18.1577 4.55765 18.3333 4.99967 18.3333H14.9997C15.4417 18.3333 15.8656 18.1577 16.1782 17.8452C16.4907 17.5326 16.6663 17.1087 16.6663 16.6667V10" stroke="#999999" strokeWidth="2" strokeLinecap="round" strokeLinejoin="round"/>
<path d="M12.5 18.334V15.0007C12.5 14.5586 12.3244 14.1347 12.0118 13.8221C11.6993 13.5096 11.2754 13.334 10.8333 13.334H9.16667C8.72464 13.334 8.30072 13.5096 7.98816 13.8221C7.6756 14.1347 7.5 14.5586 7.5 15.0007V18.334" stroke="#999999" strokeWidth="2" strokeLinecap="round" strokeLinejoin="round"/>
<path d="M1.66699 5.83398H18.3337" stroke="#999999" strokeWidth="2" strokeLinecap="round" strokeLinejoin="round"/>
<path d="M18.3337 5.83398V8.33398C18.3337 8.77601 18.1581 9.19993 17.8455 9.5125C17.5329 9.82506 17.109 10.0007 16.667 10.0007C16.1801 9.97385 15.7151 9.78961 15.342 9.47565C15.2426 9.4038 15.123 9.36512 15.0003 9.36512C14.8776 9.36512 14.7581 9.4038 14.6587 9.47565C14.2856 9.78961 13.8205 9.97385 13.3337 10.0007C12.8468 9.97385 12.3818 9.78961 12.0087 9.47565C11.9092 9.4038 11.7897 9.36512 11.667 9.36512C11.5443 9.36512 11.4248 9.4038 11.3253 9.47565C10.9522 9.78961 10.4872 9.97385 10.0003 10.0007C9.51344 9.97385 9.04843 9.78961 8.67533 9.47565C8.57589 9.4038 8.45634 9.36512 8.33366 9.36512C8.21098 9.36512 8.09142 9.4038 7.99199 9.47565C7.61888 9.78961 7.15388 9.97385 6.66699 10.0007C6.1801 9.97385 5.7151 9.78961 5.34199 9.47565C5.24256 9.4038 5.123 9.36512 5.00033 9.36512C4.87765 9.36512 4.75809 9.4038 4.65866 9.47565C4.28555 9.78961 3.82055 9.97385 3.33366 10.0007C2.89163 10.0007 2.46771 9.82506 2.15515 9.5125C1.84259 9.19993 1.66699 8.77601 1.66699 8.33398V5.83398" stroke="#999999" strokeWidth="2" strokeLinecap="round" strokeLinejoin="round"/>
</g>
<defs>
<clipPath id="clip0_1544_3972">
<rect width="20" height="20" fill="white"/>
</clipPath>
</defs>
</svg>
