<svg width="23" height="15" viewBox="0 0 23 15" fill="none" xmlns="http://www.w3.org/2000/svg">
<path fill-rule="evenodd" clip-rule="evenodd" d="M2.5 3.5C2.5 2.94772 2.94772 2.5 3.5 2.5H13.5C14.0523 2.5 14.5 2.94772 14.5 3.5V5.98291C14.4998 5.99492 14.4998 6.00694 14.5 6.01896V8.48449C14.4999 8.49422 14.4999 8.50395 14.5 8.51368V11.5C14.5 12.0523 14.0523 12.5 13.5 12.5H3.5C2.94772 12.5 2.5 12.0523 2.5 11.5V3.5ZM16.5 10.3685V11.5C16.5 13.1569 15.1569 14.5 13.5 14.5H3.5C1.84315 14.5 0.5 13.1569 0.5 11.5V3.5C0.5 1.84315 1.84315 0.5 3.5 0.5H13.5C15.1569 0.5 16.5 1.84315 16.5 3.5V4.25877L20.244 2.0743L20.244 2.07427C20.472 1.94127 20.731 1.87076 20.9949 1.86986C21.2588 1.86896 21.5183 1.93772 21.7472 2.06919C21.976 2.20066 22.1662 2.39019 22.2983 2.61864C22.4305 2.847 22.5 3.10617 22.5 3.37V3.3703V11.566V11.5665C22.4999 11.8378 22.4261 12.104 22.2867 12.3368C22.1472 12.5695 21.9472 12.7601 21.708 12.8881C21.4688 13.0162 21.1993 13.077 20.9283 13.064C20.6573 13.0511 20.3949 12.9648 20.169 12.8145L20.1683 12.8141L16.5 10.3685ZM16.5 7.96482L20.5 10.6315V4.24047L16.5 6.57431V7.96482Z" fill="url(#paint0_linear_1544_5157)"/>
<defs>
<linearGradient id="paint0_linear_1544_5157" x1="0.5" y1="7.5" x2="22.5" y2="7.5" gradientUnits="userSpaceOnUse">
<stop stop-color="#52BAE6"/>
<stop offset="0.9999" stop-color="#67F2D1"/>
<stop offset="1" stop-color="#51C2A7"/>
</linearGradient>
</defs>
</svg>
