<svg width="60" height="26" viewBox="0 0 60 26" fill="none" xmlns="http://www.w3.org/2000/svg">
<rect width="60" height="26" fill="white"/>
<g clip-path="url(#clip0_3305_1562)">
<path d="M29.9275 9.41261C29.8967 11.7713 32.0923 13.0875 33.7463 13.8701C35.4456 14.673 36.0164 15.1879 36.0097 15.906C35.997 17.0048 34.6542 17.4899 33.3976 17.5087C31.2054 17.5417 29.9307 16.934 28.9173 16.4744L28.1276 20.0626C29.1443 20.5175 31.0269 20.9142 32.9791 20.9316C37.5617 20.9316 40.5598 18.7352 40.576 15.3296C40.594 11.0075 34.4192 10.7683 34.4614 8.83645C34.4759 8.25067 35.0516 7.62556 36.313 7.46662C36.9374 7.38633 38.6609 7.32488 40.6151 8.19864L41.382 4.72696C40.3311 4.35541 38.9805 3.99964 37.2989 3.99964C32.9857 3.99964 29.952 6.22603 29.9275 9.41261ZM48.7518 4.29868C47.915 4.29868 47.2098 4.77263 46.8951 5.49994L40.3491 20.6766H44.9283L45.8396 18.2313H51.4353L51.9639 20.6766H56L52.478 4.29868H48.7518ZM49.3924 8.72298L50.7139 14.8731H47.0946L49.3924 8.72298ZM24.3754 4.29888L20.7658 20.6764H25.1295L28.7374 4.29847L24.3754 4.29888ZM17.9201 4.29888L13.3782 15.4462L11.5409 5.96775C11.3253 4.90965 10.474 4.29868 9.52857 4.29868H2.10399L2 4.77427C3.52423 5.09542 5.25603 5.61341 6.30523 6.16765C6.94733 6.50622 7.13042 6.80218 7.34136 7.60671L10.8212 20.6766H15.4325L22.5023 4.29868L17.9201 4.29888Z" fill="url(#paint0_linear_3305_1562)"/>
</g>
<defs>
<linearGradient id="paint0_linear_3305_1562" x1="2484.6" y1="54.8972" x2="2532.19" y2="-1684.12" gradientUnits="userSpaceOnUse">
<stop stop-color="#222357"/>
<stop offset="1" stop-color="#254AA5"/>
</linearGradient>
<clipPath id="clip0_3305_1562">
<rect width="54" height="17" fill="white" transform="translate(2 4)"/>
</clipPath>
</defs>
</svg>
